<svg xmlns="http://www.w3.org/2000/svg" width="240.275" height="160.001"><path fill="#60676D" d="M60.015 80.001L4.547 25.763a14.85 14.85 0 0 1 0-21.34c6.029-5.895 15.796-5.895 21.825 0l33.643 32.899L93.678 4.418c6.029-5.885 15.796-5.89 21.825.005a14.856 14.856 0 0 1 0 21.345L60.015 80.001z"/><path fill="#D4D9DD" d="M180.265 80.001l-55.468-54.239a14.85 14.85 0 0 1 0-21.34c6.029-5.895 15.796-5.895 21.825 0l33.643 32.899 33.663-32.904c6.029-5.885 15.796-5.89 21.826.005s6.029 15.45 0 21.345l-55.489 54.234zm.02 0l55.468 54.239a14.85 14.85 0 0 1 0 21.34c-6.029 5.895-15.796 5.895-21.826 0l-33.643-32.899-33.663 32.904c-6.029 5.885-15.796 5.89-21.825-.005a14.856 14.856 0 0 1 0-21.345l55.489-54.234z"/><path fill="#60676D" d="M60.035 80.001l55.468 54.239a14.85 14.85 0 0 1 0 21.34c-6.029 5.895-15.796 5.895-21.825 0l-33.643-32.899-33.663 32.904c-6.029 5.885-15.796 5.89-21.825-.005s-6.029-15.45 0-21.345l55.488-54.234z"/></svg>