<svg xmlns="http://www.w3.org/2000/svg" viewBox="20 82.5 1240 635"><path fill="#D4D9DD" d="M1170.1 478.1V350.6c-.4-98.6-67.8-192.4-169-216.3 0 0-3.4-49.5-52.9-49.5-50.3 0-52.9 48.2-52.9 48.2-101.1 23.9-167.7 119.5-168.1 218v123.7c0 60.6-39.7 70.8-86.6 119.9h615.7c-46.9-49.9-86.2-55.9-86.2-116.5zm-221.8 239c54.2 0 99.4-43.1 111.4-98.6H836.5c12.3 55.5 57.6 98.6 111.8 98.6z"/><path fill="#60676D" d="M551.5 479.1V351.6c-.4-98.6-67.8-192.4-169-216.3 0 0-3.4-49.5-52.9-49.5-50.3 0-52.9 48.2-52.9 48.2C175.6 157.9 109 253.4 108.6 352v123.7c0 60.6-39.7 70.8-86.6 119.9h616.1c-47.8-49.5-86.6-55.9-86.6-116.5zM329.6 718.5c54.2 0 99.4-43.1 111.4-98.6H217.8c12.4 55.1 57.6 98.6 111.8 98.6z"/></svg>