<svg xmlns="http://www.w3.org/2000/svg" width="680" height="340"><path fill="#D4D9DD" d="M170 50c66 0 120 54 120 120s-54 120-120 120S50 236 50 170 104 50 170 50m0-50C76 0 0 76 0 170s76 170 170 170 170-76 170-170S264 0 170 0zm0 260c-14 0-25-11-25-24v-66c0-14 11-24 25-24s25 11 25 24v66c0 13-12 24-25 24zm0-180c13.255 0 24 10.298 24 23s-10.745 23-24 23-24-10.298-24-23 10.745-23 24-23z"/><path fill="#FFF" d="M510 50c66 0 120 54 120 120s-54 120-120 120-120-54-120-120S444 50 510 50m0-50c-94 0-170 76-170 170s76 170 170 170 170-76 170-170S604 0 510 0zm0 260c-14 0-25-11-25-24v-66c0-14 11-24 25-24s25 11 25 24v66c0 13-12 24-25 24zm0-180c13.255 0 24 10.298 24 23s-10.745 23-24 23-24-10.298-24-23 10.745-23 24-23z"/></svg>