<svg width="2091" height="1106" xmlns="http://www.w3.org/2000/svg" xmlns:xlink="http://www.w3.org/1999/xlink"><defs><ellipse id="b" cx="24.92" cy="83.944" rx="24.92" ry="24.944"/><filter x="-14%" width="128.1%" height="128.1%" filterUnits="objectBoundingBox" id="a"><feOffset dy="2" in="SourceAlpha" result="shadowOffsetOuter1"/><feGaussianBlur stdDeviation="2" in="shadowOffsetOuter1" result="shadowBlurOuter1"/><feColorMatrix values="0 0 0 0 0.649686437 0 0 0 0 0.649686437 0 0 0 0 0.649686437 0 0 0 0.5 0" in="shadowBlurOuter1"/></filter><ellipse id="d" cx="123.123" cy="26.141" rx="18.123" ry="18.141"/><filter x="-19.3%" y="-13.8%" width="138.6%" height="138.6%" filterUnits="objectBoundingBox" id="c"><feOffset dy="2" in="SourceAlpha" result="shadowOffsetOuter1"/><feGaussianBlur stdDeviation="2" in="shadowOffsetOuter1" result="shadowBlurOuter1"/><feColorMatrix values="0 0 0 0 0.649686437 0 0 0 0 0.649686437 0 0 0 0 0.649686437 0 0 0 0.5 0" in="shadowBlurOuter1"/></filter><rect id="f" x="59" width="21.899" height="114.516" rx="10.95"/><filter x="-38.8%" y="-5.7%" width="177.6%" height="114.8%" filterUnits="objectBoundingBox" id="e"><feOffset dy="2" in="SourceAlpha" result="shadowOffsetOuter1"/><feGaussianBlur stdDeviation="2.5" in="shadowOffsetOuter1" result="shadowBlurOuter1"/><feColorMatrix values="0 0 0 0 0.537122662 0 0 0 0 0.537122662 0 0 0 0 0.537122662 0 0 0 0.5 0" in="shadowBlurOuter1"/></filter><linearGradient x1="50.003%" y1="90.331%" x2="49.976%" y2="-32.64%" id="g"><stop stop-color="#D5DACE" stop-opacity=".2" offset="13.86%"/><stop stop-color="#97BE91" stop-opacity=".8" offset="67.67%"/><stop stop-color="#97BE91" stop-opacity=".8" offset="88.14%"/></linearGradient><linearGradient x1="49.995%" y1="90.335%" x2="49.971%" y2="-32.642%" id="h"><stop stop-color="#D5DACE" stop-opacity=".2" offset="34.96%"/><stop stop-color="#97BE91" stop-opacity=".8" offset="75.73%"/><stop stop-color="#97BE91" stop-opacity=".8" offset="85.05%"/></linearGradient></defs><g fill="none" fill-rule="evenodd"><path d="M0 .4h2090.5V1106H0z" fill-rule="nonzero" fill="#D8DED1"/><path d="M585.338 759L554 876.54m-32.983.45l-29.828-54.801" stroke="#FFF" stroke-width="7" stroke-linecap="round"/><g transform="translate(462 730)"><use fill="#000" filter="url(#a)" xlink:href="#b"/><use fill="#AEC9A7" xlink:href="#b"/></g><g transform="translate(462 730)"><use fill="#000" filter="url(#c)" xlink:href="#d"/><use fill="#AEC9A7" xlink:href="#d"/></g><path d="M532 875.793V814.19" stroke="#FFF" stroke-width="8" stroke-linecap="round"/><g transform="translate(462 730)"><use fill="#000" filter="url(#e)" xlink:href="#f"/><use fill="#FFF" xlink:href="#f"/></g><path fill="#AEC9A7" d="M521 781h22.654v48.376H521z"/><path fill="#D3DED0" d="M521 775h22.654v6.803H521z"/><g fill-rule="nonzero" opacity=".8"><path fill="url(#g)" d="M567.5 523.1l-66.2-81.3 7-115-73.2-43-12.8-152.2-166.1 81.3-58.1 93-9.3 143.6-155.6 20.9L.6 521.9" transform="translate(269 124)"/><path fill="url(#h)" d="M1487.4 523.6l-93.9-108.7-20.4-82.3-108-97.5-48.2-235-196.3 91-135 139.5-30 174-190.5 48.5L619 522" transform="translate(269 124)"/></g></g></svg>