<svg xmlns="http://www.w3.org/2000/svg" viewBox="0 0 2080 1100"><path fill="#D8DED1" d="M-1-3.6h2090.5V1102H-1z"/><linearGradient id="a" gradientUnits="userSpaceOnUse" x1="494.066" y1="560.247" x2="493.914" y2="78.813"><stop offset=".139" stop-color="#d5dace" stop-opacity=".2"/><stop offset=".677" stop-color="#97be91" stop-opacity=".8"/><stop offset=".881" stop-color="#97be91" stop-opacity=".8"/></linearGradient><path opacity=".8" fill="url(#a)" d="M777.5 598.1l-66.2-81.3 7-115-73.2-43-12.8-152.2-166.1 81.3-58.1 93-9.3 143.6-155.6 20.9-32.6 51.5"/><linearGradient id="b" gradientUnits="userSpaceOnUse" x1="1263.155" y1="548.006" x2="1262.951" y2="-95.779"><stop offset=".35" stop-color="#d5dace" stop-opacity=".2"/><stop offset=".757" stop-color="#97be91" stop-opacity=".8"/><stop offset=".851" stop-color="#97be91" stop-opacity=".8"/></linearGradient><path opacity=".8" fill="url(#b)" d="M1697.4 598.6l-93.9-108.7-20.4-82.3-108-97.5-48.2-235-196.3 91-135 139.5-30 174-190.5 48.5L829 597"/><path opacity=".1" fill="#50514C" d="M1128.3 854.3c-.6 14-45.4 34-89.2 32.2s-70.1-24.9-69.5-38.9c.6-14 47.3-36.3 91.1-34.4s68.1 27 67.6 41.1z"/><path fill="#C2DBCF" d="M1122.4 780c-5-19.1-11.7-37-19.9-52 1.1 4.7 1.8 9.6 1.8 14.6 0 36.7-32.3 66.4-72.1 66.4-24.3 0-45.8-11.1-58.8-28-12.8 50.2 25.6 94 74.6 94 49.3 0 87.7-44.3 74.4-95z"/><path fill="#C3DCD0" d="M1122.2 779.5c-4.9-18.9-11.5-36.7-19.6-51.6 1 4.3 1.3 8.9 1.1 13.9-1.2 36.2-32.6 66.4-72.1 66.7-24 .2-45.2-10.9-58.2-27.7-12.4 49.9 25.7 93.3 74.5 93.3 49.1.1 87.5-44 74.3-94.6z"/><path fill="#C4DCD0" d="M1122 779.1c-4.9-18.7-11.4-36.3-19.4-51.1.8 4 .8 8.3.4 13.2-2.3 35.7-32.9 66.4-72.2 67.1-23.7.4-44.7-10.8-57.5-27.3-12.1 49.5 25.8 92.5 74.3 92.5 49.1-.1 87.4-44 74.4-94.4z"/><path fill="#C4DDD1" d="M1121.8 778.6c-4.8-18.6-11.3-36-19.2-50.7.6 3.6.3 7.7-.2 12.5-3.4 35.2-33.3 66.5-72.2 67.4-23.4.6-44.2-10.7-56.8-27-11.8 49.2 26 91.7 74.1 91.7 48.9.2 87.1-43.6 74.3-93.9z"/><path fill="#C5DDD2" d="M1121.6 778.2c-4.7-18.4-11.2-35.7-19-50.2.4 3.3-.3 7-.9 11.9-4.6 34.7-33.6 66.5-72.2 67.7-23.1.7-43.6-10.5-56.1-26.7-11.5 48.8 26.1 91 73.9 91 48.8 0 87.1-43.6 74.3-93.7z"/><path fill="#C6DED2" d="M1121.3 777.8c-4.6-18.3-11-35.4-18.8-49.8.2 2.9-.8 6.4-1.5 11.2-5.6 34.1-33.9 66.5-72.3 68.1-22.9.9-43.1-10.4-55.4-26.3-11.2 48.4 26.2 90.2 73.7 90.2 48.8-.1 87-43.5 74.3-93.4z"/><path fill="#C7DED3" d="M1121.1 777.3c-4.6-18.1-10.9-35.1-18.6-49.4.1 2.5-1.2 5.7-2.2 10.5-6.7 33.5-34.2 66.6-72.3 68.4-22.6 1.1-42.6-10.2-54.7-26-10.9 48 26.3 89.4 73.5 89.4 48.7.1 86.9-43.2 74.3-92.9z"/><path fill="#C8DFD3" d="M1120.9 776.9c-4.5-17.9-10.8-34.7-18.4-48.9-.1 2.2-1.7 5-2.9 9.8-7.7 32.9-34.4 66.6-72.3 68.8-22.3 1.3-42-10.1-54-25.6-10.6 47.6 26.4 88.6 73.3 88.6 48.6-.1 86.8-43.2 74.3-92.7z"/><path fill="#C8DFD4" d="M1120.7 776.4c-4.4-17.8-10.6-34.4-18.2-48.5-.3 1.8-2.2 4.3-3.5 9.2-8.7 32.2-34.7 66.6-72.3 69.1-22 1.5-41.5-10-53.3-25.3-10.3 47.2 26.5 87.9 73.2 87.9 48.3 0 86.4-43 74.1-92.4z"/><path fill="#C9DFD5" d="M1120.5 776c-4.4-17.6-10.5-34.1-17.9-48-.5 1.5-1.9 4-4.2 8.5-3.7 32.8-35 66.6-72.4 69.4-21.7 1.6-40.9-9.8-52.6-25-10 46.8 26.6 87.1 73 87.1 48.2 0 86.3-42.8 74.1-92z"/><path fill="#CAE0D5" d="M1120.3 775.6c-4.3-17.4-10.4-33.8-17.7-47.6-.6 1.1-2.3 3.4-4.9 7.8-4.1 32.4-35.2 66.6-72.4 69.8-21.4 1.8-40.4-9.7-51.9-24.6-9.7 46.4 26.7 86.3 72.8 86.3 48.1-.1 86.2-42.7 74.1-91.7z"/><path fill="#CBE0D6" d="M1120.1 775.1c-4.2-17.3-10.2-33.5-17.5-47.1-.8.8-2.7 2.8-5.5 7.1-4.5 31.9-35.5 66.7-72.4 70.1-21.1 2-39.9-9.6-51.3-24.3-9.4 46 26.8 85.5 72.6 85.5 48 0 86-42.4 74.1-91.3z"/><path fill="#CCE1D6" d="M1119.9 774.7c-4.2-17.1-10.1-33.1-17.3-46.7-1 .4-3.1 2.1-6.2 6.4-4.9 31.5-35.7 66.7-72.4 70.4-20.8 2.1-39.3-9.4-50.6-23.9-9.1 45.6 26.9 84.7 72.4 84.7 47.9.1 85.9-42.2 74.1-90.9z"/><path fill="#CCE1D7" d="M1119.6 774.2c-4.1-17-10-32.8-17.1-46.3-1.2 0-3.5 1.5-6.8 5.8-5.3 31.1-36 66.7-72.5 70.8-20.5 2.3-38.8-9.3-49.9-23.6-8.8 45.2 27 84 72.2 84 47.9 0 85.8-42.1 74.1-90.7z"/><path fill="#CDE2D8" d="M1119.4 773.8c-4-16.8-9.9-32.5-16.9-45.8-1.4-.3-3.9.9-7.5 5.1-5.8 30.6-36.2 66.7-72.5 71.1-20.2 2.4-38.3-9.1-49.2-23.3-8.5 44.8 27.1 83.2 72 83.2 47.8 0 85.7-42 74.1-90.3z"/><path fill="#CEE2D8" d="M1119.2 773.4c-4-16.6-9.7-32.2-16.7-45.4-1.5-.7-4.3.3-8.2 4.4-6.2 30.2-36.4 66.7-72.5 71.4-19.9 2.6-37.7-9-48.5-22.9-8.2 44.4 27.2 82.4 71.9 82.4 47.7 0 85.5-41.8 74-89.9z"/><path fill="#CFE3D9" d="M1119 772.9c-3.9-16.5-9.6-31.9-16.5-44.9-1.7-1-4.7-.3-8.8 3.7-6.6 29.8-36.6 66.8-72.6 71.8-19.6 2.7-37.2-8.9-47.8-22.6-7.9 44 27.3 81.6 71.7 81.6 47.6.1 85.3-41.6 74-89.6z"/><path fill="#CFE3D9" d="M1118.8 772.5c-3.8-16.3-9.5-31.6-16.2-44.5-1.9-1.4-5.1-1-9.5 3.1-7 29.3-36.8 66.8-72.6 72.1-19.2 2.9-36.7-8.7-47.1-22.2-7.6 43.7 27.4 80.9 71.5 80.9 47.4-.1 85.1-41.6 73.9-89.4z"/><path fill="#D0E4DA" d="M1118.6 772c-3.7-16.1-9.3-31.2-16-44.1-2.1-1.8-5.5-1.6-10.2 2.4-7.4 28.9-37 66.8-72.6 72.5-18.9 3-36.1-8.6-46.4-21.9-7.3 43.3 27.5 80.1 71.3 80.1 47.3 0 84.9-41.3 73.9-89z"/><path fill="#D1E4DB" d="M1118.4 771.6c-3.7-16-9.2-30.9-15.8-43.6-2.2-2.1-5.9-2.2-10.8 1.7-7.8 28.5-37.2 66.8-72.6 72.8-18.6 3.1-35.6-8.5-45.7-21.6-7 42.9 27.6 79.3 71.1 79.3 47.1 0 84.7-41.1 73.8-88.6z"/><path fill="#D2E5DB" d="M1118.2 771.2c-3.6-15.8-9.1-30.6-15.6-43.2-2.4-2.5-6.3-2.8-11.5 1-8.2 28-37.3 66.8-72.7 73.1-18.3 3.3-35-8.3-45.1-21.2-6.6 42.5 27.7 78.5 70.9 78.5 47.2 0 84.8-40.9 74-88.2z"/><path fill="#D3E5DC" d="M1117.9 770.7c-3.5-15.6-8.9-30.3-15.4-42.7-2.6-2.8-6.7-3.4-12.2.3-8.6 27.6-39.3 60.6-72.7 73.5-18.3.1-34.5-8.2-44.4-20.9-6.3 42.1 27.8 77.8 70.7 77.8 47.2 0 84.7-40.8 74-88z"/><path fill="#D3E5DD" d="M1117.7 770.3c-3.5-15.5-8.8-30-15.2-42.3-2.8-3.2-7.1-4-12.8-.3-9 27.2-39.6 60.3-72.7 73.8-18 .1-34-8-43.7-20.5-6 41.7 27.9 77 70.6 77 46.9-.1 84.4-40.8 73.8-87.7z"/><path fill="#D4E6DD" d="M1117.5 769.8c-3.4-15.3-8.7-29.6-15-41.9-3-3.5-7.5-4.7-13.5-1-9.5 26.7-39.9 60-72.7 74.1-17.7.1-33.4-7.9-43-20.2-5.7 41.3 28 76.2 70.4 76.2 46.8.1 84.2-40.4 73.8-87.2z"/><path fill="#D5E6DE" d="M1117.3 769.4c-3.3-15.2-8.6-29.3-14.7-41.4-3.1-3.9-7.9-5.3-14.1-1.7-9.9 26.3-40.3 59.7-72.8 74.5-17.5.1-32.9-7.8-42.3-19.8-5.4 40.9 28.2 75.4 70.2 75.4 46.6-.1 84-40.4 73.7-87z"/><path fill="#D6E7DE" d="M1117.1 769c-3.3-15-8.4-29-14.5-41-3.3-4.3-8.3-5.9-14.8-2.4-10.3 25.9-40.6 59.4-72.8 74.8-17.2.1-32.4-7.6-41.6-19.5-5.1 40.5 28.3 74.6 70 74.6 46.5.1 83.9-40.1 73.7-86.5z"/><path fill="#D6E7DF" d="M1116.9 768.5c-3.2-14.8-8.3-28.7-14.3-40.5-3.5-4.6-8.7-6.5-15.5-3-10.7 25.5-40.9 59.2-72.8 75.2-16.9.1-31.8-7.5-40.9-19.2-4.8 40.1 28.4 73.9 69.8 73.9 46.4-.1 83.7-40.1 73.7-86.4z"/><path fill="#D7E8DF" d="M1116.7 768.1c-3.2-14.7-8.2-28.4-14.1-40.1-3.7-5-9.1-7.1-16.1-3.7-11.1 25-41.3 58.9-72.8 75.5-16.6.1-31.3-7.4-40.2-18.8-4.5 39.7 28.5 73.1 69.6 73.1 46.2-.1 83.5-39.9 73.6-86z"/><path fill="#D8E8E0" d="M1116.5 767.6c-3.1-14.5-8-28-13.9-39.7-3.9-5.3-9.5-7.8-16.8-4.4-11.5 24.6-41.6 58.6-72.9 75.8-16.3.1-30.7-7.2-39.5-18.5-4.2 39.3 28.6 72.3 69.4 72.3 46.2.1 83.4-39.5 73.7-85.5z"/><path fill="#D9E9E1" d="M1116.2 767.2c-3-14.3-7.9-27.7-13.7-39.2-4-5.7-9.9-8.4-17.5-5.1-11.9 24.2-41.9 58.3-72.9 76.2-16 .1-30.2-7.1-38.8-18.1-3.9 38.9 28.7 71.5 69.3 71.5 46.1 0 83.3-39.5 73.6-85.3z"/><path fill="#D9E9E1" d="M1116 766.8c-3-14.2-7.8-27.4-13.5-38.8-4.2-6.1-10.3-9-18.1-5.8-12.3 23.7-42.3 58.1-72.9 76.5-15.8.1-29.7-6.9-38.2-17.8-3.6 38.5 28.8 70.8 69.1 70.8 46 0 83.1-39.3 73.6-84.9z"/><path fill="#DAEAE2" d="M1115.8 766.3c-2.9-14-7.6-27.1-13.3-38.3-4.4-6.4-10.7-9.6-18.8-6.4-12.7 23.3-42.6 57.8-73 76.8-15.5.1-29.1-6.8-37.5-17.5-3.3 38.2 28.9 70 68.9 70 46 0 83.1-39.1 73.7-84.6z"/><path fill="#DBEAE2" d="M1115.6 765.9c-2.8-13.8-7.5-26.8-13-37.9-4.6-6.8-11.1-10.2-19.4-7.1-13.2 22.9-42.9 57.5-73 77.2-15.2.1-28.6-6.7-36.8-17.1-3 37.8 29 69.2 68.7 69.2 45.7-.1 82.8-39 73.5-84.3z"/><path fill="#DCEAE3" d="M1115.4 765.4c-2.8-13.7-7.4-26.5-12.8-37.5-4.7-7.1-11.5-10.9-20.1-7.8-13.6 22.4-43.3 57.2-73 77.5-14.9.1-28.1-6.5-36.1-16.8-2.7 37.4 29.1 68.4 68.5 68.4 45.6.1 82.6-38.7 73.5-83.8z"/><path fill="#DDEBE4" d="M1115.2 765c-2.7-13.5-7.3-26.1-12.6-37-4.9-7.5-11.9-11.5-20.8-8.5-14 22-43.6 56.9-73 77.8-14.6.1-27.5-6.4-35.4-16.4-2.4 37 29.2 67.7 68.3 67.7 45.5 0 82.5-38.7 73.5-83.6z"/><path fill="#DDEBE4" d="M1115 764.6c-2.6-13.3-7.1-25.8-12.4-36.6-5.1-7.8-12.3-12.1-21.4-9.1-14.4 21.6-43.9 56.7-73.1 78.2-14.3.1-27-6.3-34.7-16.1-2.1 36.6 29.3 66.9 68.1 66.9 45.4-.1 82.3-38.6 73.5-83.3z"/><path fill="#DEECE5" d="M1114.7 764.1c-2.6-13.2-7-25.5-12.2-36.1-5.3-8.2-12.7-12.7-22.1-9.8-14.8 21.1-44.3 56.4-73.1 78.5-14 .1-26.5-6.1-34-15.8-1.8 36.2 29.4 66.1 68 66.1 45.3 0 82.2-38.3 73.4-82.9z"/><path fill="#DFECE5" d="M1114.5 763.7c-2.5-13-6.9-25.2-12-35.7-5.5-8.6-13.1-13.3-22.8-10.5-15.2 20.7-44.6 56.1-73.1 78.9-13.8.1-25.9-6-33.3-15.4-1.5 35.8 29.5 65.3 67.8 65.3 45.2-.1 82-38.2 73.4-82.6z"/><path fill="#E0EDE6" d="M1114.3 763.2c-2.5-12.8-6.7-24.9-11.8-35.3-5.6-8.9-13.5-13.9-23.4-11.2-15.6 20.3-44.9 55.8-73.1 79.2-13.5.1-25.4-5.8-32.6-15.1-1.2 35.4 29.6 64.5 67.6 64.5 45 .2 81.8-37.8 73.3-82.1z"/><path fill="#E0EDE6" d="M1114.1 762.8c-2.4-12.7-6.6-24.5-11.6-34.8-5.8-9.3-14-14.6-24.1-11.9-16 19.8-45.3 55.5-73.2 79.5-13.2.1-24.8-5.7-32-14.7-.9 35 29.7 63.8 67.4 63.8 45.1 0 81.8-37.8 73.5-81.9z"/><path fill="#E1EDE7" d="M1113.9 762.4c-2.3-12.5-6.5-24.2-11.3-34.4-6-9.6-14.4-15.2-24.7-12.5-16.4 19.4-45.6 55.3-73.2 79.9-12.9.1-24.3-5.6-31.3-14.4-.6 34.6 29.8 63 67.2 63 44.8-.1 81.5-37.7 73.3-81.6z"/><path fill="#E2EEE7" d="M1113.7 761.9c-2.3-12.4-6.3-23.9-11.1-33.9-6.2-10-14.8-15.8-25.4-13.2-16.8 19-45.9 55-73.2 80.2-12.6.2-23.8-5.4-30.6-14.1-.3 34.2 29.9 62.2 67 62.2 44.7 0 81.3-37.4 73.3-81.2z"/><path fill="#E3EEE8" d="M1113.5 761.5c-2.2-12.2-6.2-23.6-10.9-33.5-6.4-10.4-15.2-16.4-26.1-13.9-17.3 18.6-46.3 54.7-73.3 80.5-12.3.2-23.2-5.3-29.9-13.7 0 33.8 30 61.4 66.8 61.4 44.7.1 81.3-37.2 73.4-80.8z"/><path fill="#E3EFE9" d="M1113.3 761c-2.1-12-6.1-23.3-10.7-33.1-6.5-10.7-15.6-17-26.7-14.6-17.7 18.1-46.6 54.4-73.3 80.9-12 .2-22.7-5.2-29.2-13.4.3 33.4 30.1 60.7 66.7 60.7 44.4.1 80.9-37 73.2-80.5z"/><path fill="#E4EFE9" d="M1113 760.6c-2.1-11.9-6-22.9-10.5-32.6-6.7-11.1-16-17.7-27.4-15.2-18.1 17.7-46.9 54.2-73.3 81.2-11.8.2-22.2-5-28.5-13 .6 33.1 30.2 59.9 66.5 59.9 44.4-.1 80.9-37 73.2-80.3z"/><path fill="#E5F0EA" d="M1112.8 760.2c-2-11.7-5.8-22.6-10.3-32.2-6.9-11.4-16.4-18.3-28.1-15.9-18.5 17.3-47.3 53.9-73.3 81.5-11.5.2-21.6-4.9-27.8-12.7.9 32.7 30.4 59.1 66.3 59.1 44.3 0 80.7-36.7 73.2-79.8z"/><path fill="#E6F0EA" d="M1112.6 759.7c-2-11.5-5.7-22.3-10.1-31.7-7.1-11.8-16.8-18.9-28.7-16.6-18.9 16.8-47.6 53.6-73.4 81.9-11.2.2-21.1-4.7-27.1-12.3 1.2 32.3 30.5 58.3 66.1 58.3 44.2-.1 80.6-36.6 73.2-79.6z"/><path fill="#E6F0EB" d="M1112.4 759.3c-1.9-11.4-5.6-22-9.9-31.3-7.2-12.1-17.2-19.5-29.4-17.3-19.3 16.4-47.9 53.3-73.4 82.2-10.9.2-20.6-4.6-26.4-12 1.5 31.9 30.6 57.6 65.9 57.6 44.1 0 80.4-36.4 73.2-79.2z"/><path fill="#E7F1EB" d="M1112.2 758.8c-1.8-11.2-5.4-21.7-9.6-30.9-7.4-12.5-17.6-20.1-30-18-19.7 16-48.3 53-73.4 82.6-10.6.2-20-4.5-25.7-11.7 1.8 31.5 30.7 56.8 65.7 56.8 43.8.1 80-36.1 73-78.8z"/><path fill="#E8F1EC" d="M1112 758.4c-1.8-11-5.3-21.4-9.4-30.4-7.6-12.9-18-20.8-30.7-18.6-20.1 15.5-48.6 52.8-73.4 82.9-10.3.2-19.5-4.3-25.1-11.3 2.1 31.1 30.8 56 65.5 56 43.8-.1 80-36.2 73.1-78.6z"/><path fill="#E8F2EC" d="M1111.8 758c-1.7-10.9-5.2-21-9.2-30-7.8-13.2-18.4-21.4-31.4-19.3-20.5 15.1-48.9 52.5-73.5 83.2-10.1.2-18.9-4.2-24.4-11 2.5 30.7 30.9 55.2 65.4 55.2 43.7 0 79.8-35.9 73.1-78.1z"/><path fill="#E9F2ED" d="M1111.6 757.5c-1.7-10.7-5-20.7-9-29.5-8-13.6-18.8-22-32-20-21 14.7-49.3 52.2-73.5 83.6-9.8.2-18.4-4.1-23.7-10.6 2.8 30.3 31 54.4 65.2 54.4 43.5 0 79.6-35.8 73-77.9z"/><path fill="#EAF2EE" d="M1111.3 757.1c-1.6-10.5-4.9-20.4-8.8-29.1-8.1-13.9-19.2-22.6-32.7-20.7-21.4 14.2-49.6 51.9-73.5 83.9-9.5.2-17.9-3.9-23-10.3 3.1 29.9 31.1 53.7 65 53.7 43.5 0 79.5-35.6 73-77.5z"/><path fill="#EBF3EE" d="M1111.1 756.6c-1.6-10.4-4.8-20.1-8.6-28.7-8.3-14.3-19.6-23.2-33.4-21.3-21.8 13.8-49.9 51.7-73.5 84.2-9.2.2-17.3-3.8-22.3-10 3.4 29.5 31.2 52.9 64.8 52.9 43.4.1 79.3-35.3 73-77.1z"/><path fill="#EBF3EF" d="M1110.9 756.2c-1.5-10.2-4.7-19.8-8.4-28.2-8.5-14.7-20-23.8-34-22-22.2 13.4-50.3 51.4-73.6 84.6-8.9.2-16.8-3.6-21.6-9.6 3.7 29 31.3 52 64.7 52 43.3 0 79.1-35.2 72.9-76.8z"/><path fill="#ECF4EF" d="M1110.7 755.8c-1.5-10-4.5-19.4-8.1-27.8-8.7-15-20.4-24.5-34.7-22.7-22.6 12.9-50.6 51.1-73.6 84.9-8.6.2-16.3-3.5-20.9-9.3 4 28.7 31.4 51.3 64.4 51.3 43.2.1 78.9-35 72.9-76.4z"/><path fill="#EDF4F0" d="M1110.5 755.3c-1.4-9.9-4.4-19.1-7.9-27.3-8.9-15.4-20.8-25.1-35.3-23.4-23 12.5-50.9 50.8-73.6 85.3-8.3.2-15.7-3.4-20.2-8.9 4.3 28.3 31.5 50.6 64.2 50.6 43-.1 78.6-35 72.8-76.3z"/><path fill="#EDF4F0" d="M1110.3 754.9c-1.3-9.7-4.3-18.8-7.7-26.9-9-15.7-21.2-25.7-36-24.1-23.4 12.1-51.3 50.5-73.7 85.6-8.1.2-15.2-3.2-19.5-8.6 4.6 27.9 31.6 49.8 64 49.8 43 0 78.6-34.7 72.9-75.8z"/><path fill="#EEF5F1" d="M1110.1 754.4c-1.3-9.5-4.1-18.5-7.5-26.5-9.2-16.1-22.1-28.9-36.7-24.7-25.5 7.3-51.6 50.3-73.7 85.9-7.8.2-14.6-3.1-18.9-8.3 4.9 27.6 31.7 49 63.9 49 42.9.1 78.4-34.4 72.9-75.4z"/><path fill="#EFF5F1" d="M1109.9 754c-1.2-9.4-4-18.2-7.3-26-9.4-16.4-22.5-29.5-37.3-25.4-25.8 7-51.9 50-73.7 86.3-7.5.2-14.1-3-18.2-7.9 5.2 27.2 31.8 48.2 63.7 48.2 42.7-.1 78.1-34.4 72.8-75.2z"/><path fill="#EFF6F2" d="M1109.6 753.6c-1.2-9.2-3.9-17.8-7.1-25.6-9.6-16.8-22.8-30-38-26.1-26.1 6.7-52.2 49.7-73.7 86.6-7.2.2-13.6-2.8-17.5-7.6 5.5 26.8 31.9 47.5 63.5 47.5 42.7 0 78.1-34.2 72.8-74.8z"/><path fill="#F0F6F3" d="M1109.4 753.1c-1.1-9-3.7-17.5-6.9-25.1-9.7-17.2-23.2-30.5-38.7-26.8-26.3 6.5-52.6 49.4-73.8 86.9-6.9.2-13-2.7-16.8-7.2 5.8 26.4 32 46.7 63.3 46.7 42.7 0 78-34 72.9-74.5z"/><path fill="#F1F6F3" d="M1109.2 752.7c-1.1-8.9-3.6-17.2-6.7-24.7-9.9-17.5-23.6-31.1-39.3-27.4-26.6 6.2-52.9 49.2-73.8 87.3-6.6.2-12.5-2.5-16.1-6.9 6.1 26 32.1 45.9 63.1 45.9 42.5-.1 77.7-33.9 72.8-74.2z"/><path fill="#F1F7F4" d="M1109 752.2c-1-8.7-3.5-16.9-6.4-24.3-10.1-17.9-23.9-31.6-40-28.1-26.9 5.9-53.2 48.9-73.8 87.6-6.4.2-12-2.4-15.4-6.6 6.4 25.6 32.2 45.1 62.9 45.1 42.3.1 77.4-33.5 72.7-73.7z"/><path fill="#F2F7F4" d="M1108.8 751.8c-1-8.5-3.4-16.6-6.2-23.8-10.3-18.2-24.3-32.2-40.6-28.8-27.2 5.6-53.6 48.6-73.8 87.9-6.1.2-11.4-2.3-14.7-6.2 6.7 25.2 32.3 44.3 62.7 44.3 42.1.1 77.1-33.4 72.6-73.4z"/><path fill="#F3F8F5" d="M1108.6 751.4c-.9-8.4-3.2-16.3-6-23.4-10.5-18.6-24.7-32.7-41.3-29.5-27.6 5.3-53.9 48.3-73.9 88.3-5.8.2-10.9-2.1-14-5.9 7 24.8 32.4 43.6 62.6 43.6 42 0 77-33.3 72.6-73.1z"/><path fill="#F3F8F5" d="M1108.4 750.9c-.9-8.2-3.1-15.9-5.8-22.9-10.6-19-25.1-33.2-42-30.2-27.9 5.1-54.2 48-73.9 88.6-5.5.2-10.4-2-13.3-5.5 7.3 24.4 32.6 42.8 62.4 42.8 41.9 0 76.8-33.1 72.6-72.8z"/><path fill="#F4F8F6" d="M1108.1 750.5c-.8-8-3-15.6-5.6-22.5-10.8-19.3-25.4-33.7-42.6-30.8-28.2 4.8-54.6 47.8-73.9 89-5.2.2-9.8-1.8-12.6-5.2 7.6 24 32.7 42 62.2 42 41.8-.1 76.6-33 72.5-72.5z"/><path fill="#F5F9F6" d="M1107.9 750c-.8-7.8-2.8-15.3-5.4-22.1-11-19.7-25.8-34.3-43.3-31.5-28.5 4.5-54.9 47.5-74 89.3-4.9.3-9.3-1.7-12-4.8 7.9 23.6 32.8 41.2 62 41.2 41.9.1 76.6-32.7 72.7-72.1z"/><path fill="#F5F9F7" d="M1107.7 749.6c-.7-7.7-2.7-15-5.2-21.6-11.2-20-26.2-34.8-44-32.2-28.9 4.2-55.2 47.2-74 89.6-4.6.3-8.7-1.6-11.3-4.5 8.2 23.2 32.9 40.5 61.8 40.5 41.8 0 76.4-32.6 72.7-71.8z"/><path fill="#F6F9F7" d="M1107.5 749.2c-.7-7.5-2.6-14.7-5-21.2-11.4-20.4-26.6-35.3-44.6-32.9-29.2 4-55.6 46.9-74 90-4.4.3-8.2-1.4-10.6-4.2 8.5 22.8 33 39.7 61.6 39.7 41.6 0 76.1-32.4 72.6-71.4z"/><path fill="#F7FAF8" d="M1107.3 748.7c-.6-7.3-2.4-14.3-4.7-20.7-11.5-20.7-27-35.8-45.3-33.5-29.6 3.7-55.9 46.6-74 90.3-4.1.3-7.7-1.3-9.9-3.8 8.8 22.5 33.1 38.9 61.4 38.9 41.4-.1 75.8-32.3 72.5-71.2z"/><path fill="#F7FAF9" d="M1107.1 748.3c-.6-7.2-2.3-14-4.5-20.3-11.7-21.1-27.4-36.3-45.9-34.2-29.9 3.4-56.2 46.4-74.1 90.6-3.8.3-7.1-1.2-9.2-3.5 9.1 22.1 33.2 38.1 61.3 38.1 41.2 0 75.5-32 72.4-70.7z"/><path fill="#F8FBF9" d="M1106.9 747.8c-.5-7-2.2-13.7-4.3-19.9-11.9-21.5-27.7-36.9-46.6-34.9-30.3 3.2-56.6 46.1-74.1 91-3.5.3-6.6-1-8.5-3.1 9.4 21.7 33.3 37.4 61.1 37.4 41.1 0 75.3-31.9 72.4-70.5z"/><path fill="#F8FBFA" d="M1106.7 747.4c-.5-6.8-2.1-13.4-4.1-19.4-12.1-21.8-28.1-37.4-47.3-35.6-30.6 2.9-56.9 45.8-74.1 91.3-3.2.3-6.1-.9-7.8-2.8 9.7 21.3 33.4 36.6 60.9 36.6 41 0 75-31.7 72.4-70.1z"/><path fill="#F9FBFA" d="M1106.4 747c-.4-6.7-1.9-13.1-3.9-19-12.2-22.2-28.5-37.9-47.9-36.2-31 2.6-57.2 45.5-74.1 91.6-2.9.3-5.5-.7-7.1-2.5 10 20.9 33.5 35.8 60.7 35.8 40.9 0 74.8-31.5 72.3-69.7z"/><path fill="#FAFCFB" d="M1106.2 746.5c-.4-6.5-1.8-12.7-3.7-18.5-12.4-22.5-28.9-38.4-48.6-36.9-31.4 2.4-57.6 45.3-74.2 92-2.6.3-5-.6-6.4-2.1 10.3 20.5 33.6 35 60.5 35 40.9-.1 74.7-31.4 72.4-69.5z"/><path fill="#FAFCFB" d="M1106 746.1c-.3-6.3-1.7-12.4-3.5-18.1-12.6-22.9-29.3-38.9-49.3-37.6-31.8 2.1-57.9 45-74.2 92.3-2.4.3-4.5-.5-5.8-1.8 10.6 20.1 33.7 34.2 60.3 34.2 40.9.1 74.6-31.1 72.5-69z"/><path fill="#FBFCFC" d="M1105.8 745.6c-.3-6.2-1.5-12.1-3.3-17.7-12.8-23.3-29.7-39.4-49.9-38.3-32.1 1.8-58.2 44.7-74.2 92.7-2.1.3-3.9-.3-5.1-1.4 10.9 19.7 33.8 33.5 60.1 33.5 40.7 0 74.2-31 72.4-68.8z"/><path fill="#FBFDFC" d="M1105.6 745.2c-.3-6-1.4-11.8-3-17.2-13-23.6-30.1-40-50.6-39-32.5 1.6-58.6 44.4-74.2 93-1.8.3-3.4-.2-4.4-1.1 11.2 19.3 33.9 32.7 60 32.7 40.4 0 73.8-30.8 72.2-68.4z"/><path fill="#FCFDFC" d="M1105.4 744.8c-.2-5.8-1.3-11.5-2.8-16.8-13.1-24-30.5-40.5-51.2-39.6-32.9 1.3-58.9 44.1-74.3 93.3-1.5.3-2.8-.1-3.7-.8 11.6 18.9 34 31.9 59.8 31.9 40.3 0 73.5-30.6 72.2-68z"/><path fill="#FCFDFD" d="M1105.2 744.3c-.2-5.7-1.1-11.2-2.6-16.3-13.3-24.3-30.9-41-51.9-40.3-33.3 1-59.2 43.9-74.3 93.7-1.2.3-2.3.1-3-.4 11.9 18.5 34.1 31.1 59.6 31.1 40.2 0 73.3-30.5 72.2-67.8z"/><path fill="#FDFDFD" d="M1105 743.9c-.1-5.5-1-10.8-2.4-15.9-13.5-24.7-31.3-41.5-52.6-41-33.7.8-59.6 43.6-74.3 94-.9.3-1.8.2-2.3-.1 12.2 18.1 34.2 30.4 59.4 30.4 40.1 0 73-30.3 72.2-67.4z"/><path fill="#FDFEFE" d="M1104.7 743.4c-.1-5.3-.9-10.5-2.2-15.5-13.7-25-31.7-42-53.2-41.7-34.1.5-59.9 43.3-74.4 94.3-.7.3-1.2.4-1.6.3 12.5 17.7 34.3 29.6 59.2 29.6 40.1.1 72.8-30 72.2-67z"/><path fill="#FEFEFE" d="M1104.5 743c0-5.2-.8-10.2-2-15-13.9-25.4-32.1-42.5-53.9-42.3-34.5.3-60.2 43-74.4 94.7-.4.3-.7.5-.9.6 12.8 17.3 34.4 28.8 59 28.8 40-.1 72.5-30 72.2-66.8z"/><path fill="#FCFCFC" d="M1032.2 808.9c39.8 0 72.1-29.7 72.1-66.4 0-5-.6-9.9-1.8-14.6-14-25.8-32.5-43-54.6-43-34.9 0-60.6 42.8-74.4 95-.1.3-.2.6-.2.9 13.1 17.1 34.6 28.1 58.9 28.1z"/><path opacity=".8" fill="#8AA97C" d="M1104.3 795.8c0 10.8-8.2 19.6-18.3 19.6-10.1 0-18.3-8.8-18.3-19.6s14.3-31.9 24.4-31.9c10.1.1 12.2 21.1 12.2 31.9zm-8.9 40.9c0 3.9-4.2 7.1-9.4 7.1s-9.4-3.2-9.4-7.1c0-3.9 7.4-11.6 12.6-11.6s6.2 7.6 6.2 11.6z"/><ellipse transform="rotate(-16.423 992.073 791.678)" opacity=".8" fill="#8AA97C" cx="992.2" cy="791.7" rx="14.3" ry="17.4"/><path opacity=".8" fill="#8AA97C" d="M1040.6 698.1c9.9 4.6 5.8 34.7-1 49.4-6.8 14.7-20.4 22.9-30.3 18.3-9.9-4.6-12.5-20.2-5.7-35 6.8-14.7 27.1-37.3 37-32.7z"/><path fill="#D8DED1" d="M1043.3 773.1l6.6-26.5 26.4 6.1 10.7-32.1 20.6 17.2-2.6 1.7-14.9-12.5-10 29.5-26.7-4.8-6.9 22.5z"/><ellipse opacity=".6" fill="#939393" cx="195.1" cy="1004" rx="35.2" ry="8.6"/><ellipse opacity=".6" fill="#939393" cx="226.3" cy="1011.9" rx="22.6" ry="8.6"/><ellipse opacity=".6" fill="#939393" cx="244.9" cy="1002" rx="30.5" ry="12"/><path fill="#4E4030" d="M211.1 997.2l.5-38.1c.1-6.5-5.2-11.9-11.7-11.9h-30c-5.6 0-10.2-4.6-10.2-10.2v-9.2c0-1-.7-1.9-1.8-2.1l-1.6-.2c-4.2-.6-7.3-4.2-7.5-8.4l-.1-3.4c-.2-5.3 4-9.7 9.3-9.7h.1l-.6-33.1c-.1-4.7 3.5-8.6 8.2-8.8h.1c2.9-.2 5.4 2.1 5.4 5l.8 71.1h38.5c7.5 0 13.4-6.1 13.3-13.6l-.2-9.5c-.1-6.2-5.1-11.3-11.3-11.5h-.2c-5.1-.2-9.2-4.3-9.2-9.4l-.7-37.3 13.8.8-1.6 18.7h8.1v8.9L215 887v.1c-.4 4.8 3.3 8.9 8.1 8.9h3.5c6.7 0 12.1 5.3 12.4 12l.4 13.2 21.2.8v-34.2l13-.8.7 37.1c.1 4.7-3.6 8.7-8.3 9l-16 1.1c-6.4.4-11.4 5.7-11.5 12.1l-.6 52.6c-.1 5.6-4.6 10.1-10.2 10.1h-4.9c-6.6.1-11.8-5.3-11.7-11.8z"/><ellipse fill="#7C9072" cx="279.2" cy="886.2" rx="52.9" ry="25.2"/><ellipse fill="#7C9072" cx="160" cy="874" rx="48.4" ry="30.9"/><ellipse fill="#104E29" cx="212.3" cy="860.6" rx="69" ry="42.7"/><ellipse opacity=".6" fill="#939393" cx="1819.9" cy="934.8" rx="35.2" ry="8.6"/><ellipse opacity=".6" fill="#939393" cx="1851.1" cy="942.8" rx="22.6" ry="8.6"/><ellipse opacity=".6" fill="#939393" cx="1869.7" cy="932.8" rx="30.5" ry="12"/><path fill="#4E4030" d="M1835.9 928.1l.5-38.1c.1-6.5-5.2-11.9-11.7-11.9h-30c-5.6 0-10.2-4.6-10.2-10.2v-9.2c0-1-.7-1.9-1.8-2.1l-1.6-.2c-4.2-.6-7.3-4.2-7.5-8.4l-.1-3.4c-.2-5.3 4-9.7 9.3-9.7h.1l-.6-33.1c-.1-4.7 3.5-8.6 8.2-8.8h.1c2.9-.2 5.4 2.1 5.4 5l.8 71.1h38.5c7.5 0 13.4-6.1 13.3-13.6l-.2-9.5c-.1-6.2-5.1-11.3-11.3-11.5h-.2c-5.1-.2-9.2-4.3-9.2-9.4l-.7-37.3 13.8.8-1.6 18.7h8.1v8.9l-7.3 1.6v.1c-.4 4.8 3.3 8.9 8.1 8.9h3.5c6.7 0 12.1 5.3 12.4 12l.4 13.2 21.2.8v-34.2l13-.8.7 37.1c.1 4.7-3.6 8.7-8.3 9l-16 1.1c-6.4.4-11.4 5.7-11.5 12.1l-.6 52.6c-.1 5.6-4.6 10.1-10.2 10.1h-4.9c-6.8.1-12-5.2-11.9-11.7z"/><ellipse fill="#7C9072" cx="1904" cy="817.1" rx="52.9" ry="25.2"/><ellipse fill="#7C9072" cx="1784.9" cy="804.9" rx="48.4" ry="30.9"/><ellipse fill="#104E29" cx="1837.1" cy="791.4" rx="69" ry="42.7"/><ellipse opacity=".6" fill="#939393" cx="1445.7" cy="763.3" rx="20.4" ry="5.8"/><ellipse opacity=".6" fill="#939393" cx="1463.8" cy="768.6" rx="13.1" ry="5.8"/><ellipse opacity=".6" fill="#939393" cx="1474.5" cy="761.9" rx="17.7" ry="8.1"/><path fill="#4E4030" d="M1454.9 758.7l.3-25.7c0-4.4-3-8-6.8-8H1431c-3.2 0-5.9-3.1-5.9-6.9v-6.2c0-.7-.4-1.3-1-1.4l-.9-.2c-2.4-.4-4.2-2.8-4.3-5.7l-.1-2.3c-.1-3.6 2.3-6.5 5.4-6.5h.1l-.4-22.4c-.1-3.1 2-5.8 4.7-6h.1c1.7-.1 3.1 1.4 3.1 3.4l.4 48h22.3c4.3 0 7.8-4.1 7.7-9.2l-.1-6.4c-.1-4.2-3-7.6-6.5-7.8h-.1c-2.9-.1-5.3-2.9-5.3-6.4l-.4-25.1 8 .5-.9 12.6h4.7v6l-4.2 1.1v.1c-.3 3.2 1.9 6 4.7 6h2c3.9 0 7 3.6 7.1 8.1l.2 8.9 12.2.5v-23l7.5-.5.4 25c0 3.2-2.1 5.9-4.8 6.1l-9.3.7c-3.7.3-6.6 3.9-6.6 8.2l-.3 35.4c0 3.8-2.7 6.8-5.9 6.8h-2.8c-3.9.3-6.9-3.3-6.9-7.7z"/><ellipse fill="#7C9072" cx="1494.4" cy="683.8" rx="30.6" ry="17"/><ellipse fill="#7C9072" cx="1425.5" cy="675.6" rx="28" ry="20.9"/><ellipse fill="#104E29" cx="1455.7" cy="666.5" rx="39.9" ry="28.8"/><ellipse opacity=".6" fill="#939393" cx="1113.9" cy="619.7" rx="9.6" ry="3.6"/><ellipse opacity=".6" fill="#939393" cx="1122.4" cy="623" rx="6.1" ry="3.6"/><ellipse opacity=".6" fill="#939393" cx="1127.5" cy="618.8" rx="8.3" ry="5"/><path fill="#4E4030" d="M1118.3 616.8l.1-16c0-2.7-1.4-5-3.2-5h-8.2c-1.5 0-2.8-1.9-2.8-4.3v-3.9c0-.4-.2-.8-.5-.9l-.4-.1c-1.1-.3-2-1.8-2-3.5v-1.4c-.1-2.2 1.1-4.1 2.5-4.1l-.2-13.9c0-2 1-3.6 2.2-3.7.8-.1 1.5.9 1.5 2.1l.2 29.8h10.5c2 0 3.7-2.6 3.6-5.7l-.1-4c0-2.6-1.4-4.7-3.1-4.8h-.1c-1.4-.1-2.5-1.8-2.5-4l-.2-15.6 3.8.3-.4 7.9h2.2v3.8l-2 .7c-.1 2 .9 3.7 2.2 3.7h1c1.8 0 3.3 2.2 3.4 5l.1 5.6 5.8.3v-14.3l3.5-.3.2 15.6c0 2-1 3.6-2.2 3.8l-4.4.5c-1.7.2-3.1 2.4-3.1 5.1l-.2 22.1c0 2.4-1.3 4.2-2.8 4.2h-1.3c-1.7 0-3.1-2.2-3.1-5z"/><ellipse fill="#7C9072" cx="1136.8" cy="570.2" rx="14.4" ry="10.6"/><ellipse fill="#7C9072" cx="1104.4" cy="565.1" rx="13.2" ry="13"/><ellipse fill="#104E29" cx="1118.6" cy="559.5" rx="18.8" ry="17.9"/><ellipse opacity=".6" fill="#939393" cx="663.5" cy="1009.8" rx="35.2" ry="8.6"/><ellipse opacity=".6" fill="#939393" cx="694.7" cy="1017.8" rx="22.6" ry="8.6"/><ellipse opacity=".6" fill="#939393" cx="713.3" cy="1007.8" rx="30.5" ry="12"/><path fill="#4E4030" d="M679.4 1003.1l.5-38.1c.1-6.5-5.2-11.9-11.7-11.9h-30c-5.6 0-10.2-4.6-10.2-10.2v-9.2c0-1-.7-1.9-1.8-2.1l-1.6-.2c-4.2-.6-7.3-4.2-7.5-8.4l-.1-3.4c-.2-5.3 4-9.7 9.3-9.7h.1l-.6-33.1c-.1-4.7 3.5-8.6 8.2-8.8h.1c2.9-.2 5.4 2.1 5.4 5l.8 71.1h38.5c7.5 0 13.4-6.1 13.3-13.6l-.2-9.5c-.1-6.2-5.1-11.3-11.3-11.5h-.2c-5.1-.2-9.2-4.3-9.2-9.4l-.7-37.3 13.8.8-1.6 18.7h8.1v8.9l-7.3 1.6v.1c-.4 4.8 3.3 8.9 8.1 8.9h3.5c6.7 0 12.1 5.3 12.4 12l.4 13.2 21.2.8v-34.2l13-.8.7 37.1c.1 4.7-3.6 8.7-8.3 9l-16 1.1c-6.4.4-11.4 5.7-11.5 12.1l-.6 52.6c-.1 5.6-4.6 10.1-10.2 10.1h-4.9c-6.7.1-12-5.2-11.9-11.7z"/><ellipse fill="#7C9072" cx="747.6" cy="892.1" rx="52.9" ry="25.2"/><ellipse fill="#7C9072" cx="628.4" cy="879.9" rx="48.4" ry="30.9"/><ellipse fill="#104E29" cx="680.7" cy="866.4" rx="69" ry="42.7"/><ellipse opacity=".6" fill="#939393" cx="442.6" cy="816.7" rx="24.9" ry="6.1"/><ellipse opacity=".6" fill="#939393" cx="464.6" cy="822.3" rx="16" ry="6.1"/><ellipse opacity=".6" fill="#939393" cx="477.8" cy="815.3" rx="21.6" ry="8.5"/><path fill="#4E4030" d="M453.8 811.9l.4-27c.1-4.6-3.7-8.4-8.3-8.4h-21.2c-4 0-7.2-3.2-7.2-7.2v-6.5c0-.7-.5-1.3-1.2-1.5l-1.1-.2c-3-.5-5.2-3-5.3-5.9l-.1-2.4c-.1-3.7 2.8-6.8 6.6-6.8h.1l-.5-23.4c-.1-3.3 2.5-6.1 5.8-6.3h.1c2.1-.1 3.8 1.5 3.8 3.6l.5 50.3h27.2c5.3 0 9.5-4.3 9.4-9.6l-.2-6.7c-.1-4.4-3.6-8-8-8.1h-.1c-3.6-.1-6.5-3.1-6.5-6.7l-.5-26.4 9.8.6-1.2 13.2h5.8v6.3l-5.2 1.2v.1c-.3 3.4 2.3 6.3 5.7 6.3h2.5c4.7 0 8.6 3.7 8.7 8.5l.3 9.4 15 .6v-24.2l9.2-.6.5 26.3c.1 3.3-2.5 6.1-5.8 6.4l-11.3.8c-4.5.3-8.1 4.1-8.1 8.6l-.4 37.2c0 4-3.3 7.2-7.2 7.2h-3.4c-4.9-.3-8.6-4.1-8.6-8.7z"/><ellipse fill="#7C9072" cx="502.1" cy="733.4" rx="37.4" ry="17.8"/><ellipse fill="#7C9072" cx="417.8" cy="724.8" rx="34.2" ry="21.9"/><ellipse fill="#104E29" cx="454.7" cy="715.3" rx="48.8" ry="30.2"/><ellipse opacity=".6" fill="#939393" cx="589.4" cy="675.6" rx="13.9" ry="4.2"/><ellipse opacity=".6" fill="#939393" cx="601.7" cy="679.4" rx="8.9" ry="4.2"/><ellipse opacity=".6" fill="#939393" cx="609" cy="674.6" rx="12.1" ry="5.8"/><path fill="#4E4030" d="M595.7 672.3l.2-18.5c0-3.2-2-5.8-4.6-5.8h-11.8c-2.2 0-4-2.2-4-4.9v-4.5c0-.5-.3-.9-.7-1l-.6-.1c-1.7-.3-2.9-2-3-4.1l-.1-1.6c-.1-2.6 1.6-4.7 3.7-4.7l-.3-16.1c0-2.3 1.4-4.2 3.2-4.3h.1c1.2-.1 2.1 1 2.1 2.5l.3 34.5h15.2c2.9 0 5.3-3 5.2-6.6l-.1-4.6c-.1-3-2-5.5-4.5-5.6h-.1c-2-.1-3.6-2.1-3.6-4.6l-.3-18.1 5.5.4-.6 9.1h3.2v4.3l-2.9.8c-.2 2.3 1.3 4.3 3.2 4.3h1.4c2.6 0 4.8 2.6 4.9 5.8l.2 6.4 8.3.4v-16.6l5.1-.4.3 18c0 2.3-1.4 4.2-3.3 4.4l-6.3.5c-2.5.2-4.5 2.8-4.5 5.9l-.2 25.5c0 2.7-1.8 4.9-4 4.9h-1.9c-2.7.1-4.8-2.4-4.7-5.6z"/><ellipse fill="#7C9072" cx="622.6" cy="618.4" rx="20.9" ry="12.2"/><ellipse fill="#7C9072" cx="575.5" cy="612.5" rx="19.1" ry="15"/><ellipse fill="#104E29" cx="596.2" cy="606" rx="27.2" ry="20.7"/></svg>