<?xml version="1.0" encoding="UTF-8"?>
<svg width="145px" height="180px" viewBox="0 0 145 180" version="1.1" xmlns="http://www.w3.org/2000/svg" xmlns:xlink="http://www.w3.org/1999/xlink">
    <!-- Generator: Sketch 43.2 (39069) - http://www.bohemiancoding.com/sketch -->
    <title>sigeturbo</title>
    <desc>Created with Sketch.</desc>
    <defs></defs>
    <g id="Page-1" stroke="none" stroke-width="1" fill="none" fill-rule="evenodd">
        <g id="sigeturbo">
            <g id="SigeTurbo" transform="translate(31.000000, 10.000000)">
                <g id="SigeTurbo01">
                    <polygon id="punta_completa" fill="#FEFEFE" fill-rule="nonzero" points="3.01050847 122.75 27.4884746 113.416667 55.6522034 113.416667 80.7210169 122.333333 41.6125424 159.888889"></polygon>
                    <g id="cuerpo_logo" fill="#17AFB4">
                        <path d="M13.7864407,14.1976056 C13.7864407,14.1976056 -7.99661655e-15,22.1179715 0,46.3888889 L7.99661655e-15,116.388889 C7.99661655e-15,116.388889 -2.05069483e-14,128.611111 13.7864407,128.611111 C27.5728814,128.611111 27.2915254,115.553538 27.2915254,115.553538 C27.2915254,115.553538 27.1664783,128.611111 41.0154426,128.611111 C54.8644068,128.611111 54.8644068,115.275087 54.8644068,115.275087 C54.8644068,115.275087 53.7389831,128.611111 67.8067797,128.611111 C81.8745763,128.611111 82.1559322,114.996637 82.1559322,114.996637 C82.1559322,114.996637 82.1559322,67.2222222 82.1559322,45.2777778 C82.1559322,23.3333333 69.2135593,14.1976056 69.2135593,14.1976056 L71.7457627,7.22222222 L78.2169492,1.38888889 C78.2169492,1.38888889 78.2169492,-3.03860767e-14 71.7457627,-2.69227246e-14 C65.2745763,-2.11830073e-14 64.7118644,2.22423998 64.7118644,2.22423998 L55.4271186,4.73029325 C55.4271186,4.73029325 52.3322034,2.22423998 41.0154426,2.22423998 C29.6986817,2.22423998 25.8847458,4.73029325 25.8847458,4.73029325 L17.7254237,3.05959107 C17.7254237,3.05959107 16.0372881,-3.23691691e-14 10.4101695,-2.84217094e-14 C4.78305085,-2.34309474e-14 3.37627119,1.66733925 3.37627119,1.66733925 C3.37627119,1.66733925 7.92457764,5.26817468 9.28474576,7.22222222 C10.6449139,9.17626976 13.7864407,14.1976056 13.7864407,14.1976056 Z" id="Path"></path>
                    </g>
                    <path d="M27.1789831,59.5 L27.1789831,115.361111 L27.1789831,115.361111 C27.319661,122.944444 33.5657627,129.027778 41.2467797,129.027778 C48.9559322,129.027778 55.2020339,122.916667 55.3145763,115.361111 L55.3145763,115.361111 L55.3145763,59.5 L27.1789831,59.5 Z" id="centro_logo" fill="#338090" fill-rule="nonzero"></path>
                    <path d="M41.4437288,13.5277778 C5.93661017,1.36111111 2.11016949,40.6944444 2.11016949,40.6944444 C-0.112542373,56.6111111 12.0420339,66.75 24.3091525,66.75 C31.2305085,66.75 37.420339,63.6666667 41.5,58.8055556 C45.579661,63.6388889 51.7694915,66.75 58.6908475,66.75 C70.9579661,66.75 83.1125424,56.5833333 80.8898305,40.6944444 C80.8898305,40.6944444 77.0352542,1.36111111 41.5562712,13.5277778" id="base_rostro" fill="#FFFFFF" fill-rule="nonzero"></path>
                    <polygon id="punta" fill="#338090" fill-rule="nonzero" points="30.639661 149.333333 52.5291525 149.333333 41.6125424 159.888889"></polygon>
                    <ellipse id="circulo_ojo_2" fill="#338090" fill-rule="nonzero" cx="31.680678" cy="31.3888889" rx="8.07491525" ry="7.97222222"></ellipse>
                    <ellipse id="circulo_ojo_1" fill="#338090" fill-rule="nonzero" cx="49.7155932" cy="31.3888889" rx="8.07491525" ry="7.97222222"></ellipse>
                    <ellipse id="pupila2" fill="#FFFFFF" fill-rule="nonzero" cx="26.8976271" cy="27.0833333" rx="2.92610169" ry="2.88888889"></ellipse>
                    <ellipse id="pupila_1" fill="#FFFFFF" fill-rule="nonzero" cx="46.0016949" cy="27.0833333" rx="2.92610169" ry="2.88888889"></ellipse>
                    <path d="M41.4718644,36.7222222 C39.1084746,41 35.3664407,40.8333333 35.3664407,40.8333333 C37.9830508,49.1944444 41.4718644,50.5 41.4718644,50.5 C41.4718644,50.5 44.960678,49.2222222 47.5772881,40.8333333 C47.5772881,40.8333333 43.8633898,41 41.4718644,36.7222222 Z" id="pico" fill="#338090" fill-rule="nonzero"></path>
                </g>
            </g>
        </g>
    </g>
</svg>