<?xml version="1.0" encoding="utf-8"?>
<!-- Generator: Adobe Illustrator 17.1.0, SVG Export Plug-In . SVG Version: 6.00 Build 0)  -->
<!DOCTYPE svg PUBLIC "-//W3C//DTD SVG 1.1//EN" "http://www.w3.org/Graphics/SVG/1.1/DTD/svg11.dtd">
<svg version="1.1" xmlns="http://www.w3.org/2000/svg" xmlns:xlink="http://www.w3.org/1999/xlink" x="0px" y="0px"
	 viewBox="0 0 2080 1100" enable-background="new 0 0 2080 1100" xml:space="preserve">
<g id="Fondo">
	<rect x="-1" y="-3.6" fill="#D8DED1" width="2090.5" height="1105.6"/>
</g>
<g id="Mountain">
	<linearGradient id="SVGID_1_" gradientUnits="userSpaceOnUse" x1="494.0659" y1="560.2469" x2="493.9137" y2="78.8134">
		<stop  offset="0.1386" style="stop-color:#D5DACE;stop-opacity:0.2"/>
		<stop  offset="0.6767" style="stop-color:#97BE91;stop-opacity:0.8"/>
		<stop  offset="0.8814" style="stop-color:#97BE91;stop-opacity:0.8"/>
	</linearGradient>
	<polyline opacity="0.8" fill="url(#SVGID_1_)" points="777.5,598.1 711.3,516.8 718.3,401.8 645.1,358.8 632.3,206.6 466.2,287.9 
		408.1,380.9 398.8,524.5 243.2,545.4 210.6,596.9 	"/>
	<linearGradient id="SVGID_2_" gradientUnits="userSpaceOnUse" x1="1263.1545" y1="548.0062" x2="1262.951" y2="-95.7792">
		<stop  offset="0.3496" style="stop-color:#D5DACE;stop-opacity:0.2"/>
		<stop  offset="0.7573" style="stop-color:#97BE91;stop-opacity:0.8"/>
		<stop  offset="0.8505" style="stop-color:#97BE91;stop-opacity:0.8"/>
	</linearGradient>
	<polyline opacity="0.8" fill="url(#SVGID_2_)" points="1697.4,598.6 1603.5,489.9 1583.1,407.6 1475.1,310.1 1426.9,75.1 
		1230.6,166.1 1095.6,305.6 1065.6,479.6 875.1,528.1 829,597 	"/>
</g>
<g id="Egg">
	<path opacity="0.1" fill="#50514C" d="M1128.3,854.3c-0.6,14-45.4,34-89.2,32.2s-70.1-24.9-69.5-38.9c0.6-14,47.3-36.3,91.1-34.4
		S1128.8,840.2,1128.3,854.3z"/>
	<g>
		<g>
			<path fill="#C2DBCF" d="M1122.4,780c-5-19.1-11.7-37-19.9-52c1.1,4.7,1.8,9.6,1.8,14.6c0,36.7-32.3,66.4-72.1,66.4
				c-24.3,0-45.8-11.1-58.8-28C960.6,831.2,999,875,1048,875C1097.3,875,1135.7,830.7,1122.4,780z"/>
			<path fill="#C3DCD0" d="M1122.2,779.5c-4.9-18.9-11.5-36.7-19.6-51.6c1,4.3,1.3,8.9,1.1,13.9c-1.2,36.2-32.6,66.4-72.1,66.7
				c-24,0.2-45.2-10.9-58.2-27.7c-12.4,49.9,25.7,93.3,74.5,93.3C1097,874.2,1135.4,830.1,1122.2,779.5z"/>
			<path fill="#C4DCD0" d="M1122,779.1c-4.9-18.7-11.4-36.3-19.4-51.1c0.8,4,0.8,8.3,0.4,13.2c-2.3,35.7-32.9,66.4-72.2,67.1
				c-23.7,0.4-44.7-10.8-57.5-27.3c-12.1,49.5,25.8,92.5,74.3,92.5C1096.7,873.4,1135,829.5,1122,779.1z"/>
			<path fill="#C4DDD1" d="M1121.8,778.6c-4.8-18.6-11.3-36-19.2-50.7c0.6,3.6,0.3,7.7-0.2,12.5c-3.4,35.2-33.3,66.5-72.2,67.4
				c-23.4,0.6-44.2-10.7-56.8-27c-11.8,49.2,26,91.7,74.1,91.7C1096.4,872.7,1134.6,828.9,1121.8,778.6z"/>
			<path fill="#C5DDD2" d="M1121.6,778.2c-4.7-18.4-11.2-35.7-19-50.2c0.4,3.3-0.3,7-0.9,11.9c-4.6,34.7-33.6,66.5-72.2,67.7
				c-23.1,0.7-43.6-10.5-56.1-26.7c-11.5,48.8,26.1,91,73.9,91C1096.1,871.9,1134.4,828.3,1121.6,778.2z"/>
			<path fill="#C6DED2" d="M1121.3,777.8c-4.6-18.3-11-35.4-18.8-49.8c0.2,2.9-0.8,6.4-1.5,11.2c-5.6,34.1-33.9,66.5-72.3,68.1
				c-22.9,0.9-43.1-10.4-55.4-26.3c-11.2,48.4,26.2,90.2,73.7,90.2C1095.8,871.1,1134,827.7,1121.3,777.8z"/>
			<path fill="#C7DED3" d="M1121.1,777.3c-4.6-18.1-10.9-35.1-18.6-49.4c0.1,2.5-1.2,5.7-2.2,10.5c-6.7,33.5-34.2,66.6-72.3,68.4
				c-22.6,1.1-42.6-10.2-54.7-26c-10.9,48,26.3,89.4,73.5,89.4C1095.5,870.3,1133.7,827,1121.1,777.3z"/>
			<path fill="#C8DFD3" d="M1120.9,776.9c-4.5-17.9-10.8-34.7-18.4-48.9c-0.1,2.2-1.7,5-2.9,9.8c-7.7,32.9-34.4,66.6-72.3,68.8
				c-22.3,1.3-42-10.1-54-25.6c-10.6,47.6,26.4,88.6,73.3,88.6C1095.2,869.5,1133.4,826.4,1120.9,776.9z"/>
			<path fill="#C8DFD4" d="M1120.7,776.4c-4.4-17.8-10.6-34.4-18.2-48.5c-0.3,1.8-2.2,4.3-3.5,9.2c-8.7,32.2-34.7,66.6-72.3,69.1
				c-22,1.5-41.5-10-53.3-25.3c-10.3,47.2,26.5,87.9,73.2,87.9C1094.9,868.8,1133,825.8,1120.7,776.4z"/>
			<path fill="#C9DFD5" d="M1120.5,776c-4.4-17.6-10.5-34.1-17.9-48c-0.5,1.5-1.9,4-4.2,8.5c-3.7,32.8-35,66.6-72.4,69.4
				c-21.7,1.6-40.9-9.8-52.6-25c-10,46.8,26.6,87.1,73,87.1C1094.6,868,1132.7,825.2,1120.5,776z"/>
			<path fill="#CAE0D5" d="M1120.3,775.6c-4.3-17.4-10.4-33.8-17.7-47.6c-0.6,1.1-2.3,3.4-4.9,7.8c-4.1,32.4-35.2,66.6-72.4,69.8
				c-21.4,1.8-40.4-9.7-51.9-24.6c-9.7,46.4,26.7,86.3,72.8,86.3C1094.3,867.2,1132.4,824.6,1120.3,775.6z"/>
			<path fill="#CBE0D6" d="M1120.1,775.1c-4.2-17.3-10.2-33.5-17.5-47.1c-0.8,0.8-2.7,2.8-5.5,7.1c-4.5,31.9-35.5,66.7-72.4,70.1
				c-21.1,2-39.9-9.6-51.3-24.3c-9.4,46,26.8,85.5,72.6,85.5C1094,866.4,1132,824,1120.1,775.1z"/>
			<path fill="#CCE1D6" d="M1119.9,774.7c-4.2-17.1-10.1-33.1-17.3-46.7c-1,0.4-3.1,2.1-6.2,6.4c-4.9,31.5-35.7,66.7-72.4,70.4
				c-20.8,2.1-39.3-9.4-50.6-23.9c-9.1,45.6,26.9,84.7,72.4,84.7C1093.7,865.7,1131.7,823.4,1119.9,774.7z"/>
			<path fill="#CCE1D7" d="M1119.6,774.2c-4.1-17-10-32.8-17.1-46.3c-1.2,0-3.5,1.5-6.8,5.8c-5.3,31.1-36,66.7-72.5,70.8
				c-20.5,2.3-38.8-9.3-49.9-23.6c-8.8,45.2,27,84,72.2,84C1093.4,864.9,1131.3,822.8,1119.6,774.2z"/>
			<path fill="#CDE2D8" d="M1119.4,773.8c-4-16.8-9.9-32.5-16.9-45.8c-1.4-0.3-3.9,0.9-7.5,5.1c-5.8,30.6-36.2,66.7-72.5,71.1
				c-20.2,2.4-38.3-9.1-49.2-23.3c-8.5,44.8,27.1,83.2,72,83.2C1093.1,864.1,1131,822.1,1119.4,773.8z"/>
			<path fill="#CEE2D8" d="M1119.2,773.4c-4-16.6-9.7-32.2-16.7-45.4c-1.5-0.7-4.3,0.3-8.2,4.4c-6.2,30.2-36.4,66.7-72.5,71.4
				c-19.9,2.6-37.7-9-48.5-22.9c-8.2,44.4,27.2,82.4,71.9,82.4C1092.9,863.3,1130.7,821.5,1119.2,773.4z"/>
			<path fill="#CFE3D9" d="M1119,772.9c-3.9-16.5-9.6-31.9-16.5-44.9c-1.7-1-4.7-0.3-8.8,3.7c-6.6,29.8-36.6,66.8-72.6,71.8
				c-19.6,2.7-37.2-8.9-47.8-22.6c-7.9,44,27.3,81.6,71.7,81.6C1092.6,862.6,1130.3,820.9,1119,772.9z"/>
			<path fill="#CFE3D9" d="M1118.8,772.5c-3.8-16.3-9.5-31.6-16.2-44.5c-1.9-1.4-5.1-1-9.5,3.1c-7,29.3-36.8,66.8-72.6,72.1
				c-19.2,2.9-36.7-8.7-47.1-22.2c-7.6,43.7,27.4,80.9,71.5,80.9C1092.3,861.8,1130,820.3,1118.8,772.5z"/>
			<path fill="#D0E4DA" d="M1118.6,772c-3.7-16.1-9.3-31.2-16-44.1c-2.1-1.8-5.5-1.6-10.2,2.4c-7.4,28.9-37,66.8-72.6,72.5
				c-18.9,3-36.1-8.6-46.4-21.9c-7.3,43.3,27.5,80.1,71.3,80.1C1092,861,1129.6,819.7,1118.6,772z"/>
			<path fill="#D1E4DB" d="M1118.4,771.6c-3.7-16-9.2-30.9-15.8-43.6c-2.2-2.1-5.9-2.2-10.8,1.7c-7.8,28.5-37.2,66.8-72.6,72.8
				c-18.6,3.1-35.6-8.5-45.7-21.6c-7,42.9,27.6,79.3,71.1,79.3C1091.7,860.2,1129.3,819.1,1118.4,771.6z"/>
			<path fill="#D2E5DB" d="M1118.2,771.2c-3.6-15.8-9.1-30.6-15.6-43.2c-2.4-2.5-6.3-2.8-11.5,1c-8.2,28-37.3,66.8-72.7,73.1
				c-18.3,3.3-35-8.3-45.1-21.2c-6.6,42.5,27.7,78.5,70.9,78.5C1091.4,859.4,1129,818.5,1118.2,771.2z"/>
			<path fill="#D3E5DC" d="M1117.9,770.7c-3.5-15.6-8.9-30.3-15.4-42.7c-2.6-2.8-6.7-3.4-12.2,0.3c-8.6,27.6-39.3,60.6-72.7,73.5
				c-18.3,0.1-34.5-8.2-44.4-20.9c-6.3,42.1,27.8,77.8,70.7,77.8C1091.1,858.7,1128.6,817.9,1117.9,770.7z"/>
			<path fill="#D3E5DD" d="M1117.7,770.3c-3.5-15.5-8.8-30-15.2-42.3c-2.8-3.2-7.1-4-12.8-0.3c-9,27.2-39.6,60.3-72.7,73.8
				c-18,0.1-34-8-43.7-20.5c-6,41.7,27.9,77,70.6,77C1090.8,857.9,1128.3,817.2,1117.7,770.3z"/>
			<path fill="#D4E6DD" d="M1117.5,769.8c-3.4-15.3-8.7-29.6-15-41.9c-3-3.5-7.5-4.7-13.5-1c-9.5,26.7-39.9,60-72.7,74.1
				c-17.7,0.1-33.4-7.9-43-20.2c-5.7,41.3,28,76.2,70.4,76.2C1090.5,857.1,1127.9,816.6,1117.5,769.8z"/>
			<path fill="#D5E6DE" d="M1117.3,769.4c-3.3-15.2-8.6-29.3-14.7-41.4c-3.1-3.9-7.9-5.3-14.1-1.7c-9.9,26.3-40.3,59.7-72.8,74.5
				c-17.5,0.1-32.9-7.8-42.3-19.8c-5.4,40.9,28.2,75.4,70.2,75.4C1090.2,856.3,1127.6,816,1117.3,769.4z"/>
			<path fill="#D6E7DE" d="M1117.1,769c-3.3-15-8.4-29-14.5-41c-3.3-4.3-8.3-5.9-14.8-2.4c-10.3,25.9-40.6,59.4-72.8,74.8
				c-17.2,0.1-32.4-7.6-41.6-19.5c-5.1,40.5,28.3,74.6,70,74.6C1089.9,855.6,1127.3,815.4,1117.1,769z"/>
			<path fill="#D6E7DF" d="M1116.9,768.5c-3.2-14.8-8.3-28.7-14.3-40.5c-3.5-4.6-8.7-6.5-15.5-3c-10.7,25.5-40.9,59.2-72.8,75.2
				c-16.9,0.1-31.8-7.5-40.9-19.2c-4.8,40.1,28.4,73.9,69.8,73.9C1089.6,854.8,1126.9,814.8,1116.9,768.5z"/>
			<path fill="#D7E8DF" d="M1116.7,768.1c-3.2-14.7-8.2-28.4-14.1-40.1c-3.7-5-9.1-7.1-16.1-3.7c-11.1,25-41.3,58.9-72.8,75.5
				c-16.6,0.1-31.3-7.4-40.2-18.8c-4.5,39.7,28.5,73.1,69.6,73.1C1089.3,854,1126.6,814.2,1116.7,768.1z"/>
			<path fill="#D8E8E0" d="M1116.5,767.6c-3.1-14.5-8-28-13.9-39.7c-3.9-5.3-9.5-7.8-16.8-4.4c-11.5,24.6-41.6,58.6-72.9,75.8
				c-16.3,0.1-30.7-7.2-39.5-18.5c-4.2,39.3,28.6,72.3,69.4,72.3C1089,853.2,1126.2,813.6,1116.5,767.6z"/>
			<path fill="#D9E9E1" d="M1116.2,767.2c-3-14.3-7.9-27.7-13.7-39.2c-4-5.7-9.9-8.4-17.5-5.1c-11.9,24.2-41.9,58.3-72.9,76.2
				c-16,0.1-30.2-7.1-38.8-18.1c-3.9,38.9,28.7,71.5,69.3,71.5C1088.7,852.5,1125.9,813,1116.2,767.2z"/>
			<path fill="#D9E9E1" d="M1116,766.8c-3-14.2-7.8-27.4-13.5-38.8c-4.2-6.1-10.3-9-18.1-5.8c-12.3,23.7-42.3,58.1-72.9,76.5
				c-15.8,0.1-29.7-6.9-38.2-17.8c-3.6,38.5,28.8,70.8,69.1,70.8C1088.4,851.7,1125.5,812.4,1116,766.8z"/>
			<path fill="#DAEAE2" d="M1115.8,766.3c-2.9-14-7.6-27.1-13.3-38.3c-4.4-6.4-10.7-9.6-18.8-6.4c-12.7,23.3-42.6,57.8-73,76.8
				c-15.5,0.1-29.1-6.8-37.5-17.5c-3.3,38.2,28.9,70,68.9,70C1088.1,850.9,1125.2,811.8,1115.8,766.3z"/>
			<path fill="#DBEAE2" d="M1115.6,765.9c-2.8-13.8-7.5-26.8-13-37.9c-4.6-6.8-11.1-10.2-19.4-7.1c-13.2,22.9-42.9,57.5-73,77.2
				c-15.2,0.1-28.6-6.7-36.8-17.1c-3,37.8,29,69.2,68.7,69.2C1087.8,850.1,1124.9,811.2,1115.6,765.9z"/>
			<path fill="#DCEAE3" d="M1115.4,765.4c-2.8-13.7-7.4-26.5-12.8-37.5c-4.7-7.1-11.5-10.9-20.1-7.8c-13.6,22.4-43.3,57.2-73,77.5
				c-14.9,0.1-28.1-6.5-36.1-16.8c-2.7,37.4,29.1,68.4,68.5,68.4C1087.5,849.3,1124.5,810.5,1115.4,765.4z"/>
			<path fill="#DDEBE4" d="M1115.2,765c-2.7-13.5-7.3-26.1-12.6-37c-4.9-7.5-11.9-11.5-20.8-8.5c-14,22-43.6,56.9-73,77.8
				c-14.6,0.1-27.5-6.4-35.4-16.4c-2.4,37,29.2,67.7,68.3,67.7C1087.2,848.6,1124.2,809.9,1115.2,765z"/>
			<path fill="#DDEBE4" d="M1115,764.6c-2.6-13.3-7.1-25.8-12.4-36.6c-5.1-7.8-12.3-12.1-21.4-9.1c-14.4,21.6-43.9,56.7-73.1,78.2
				c-14.3,0.1-27-6.3-34.7-16.1c-2.1,36.6,29.3,66.9,68.1,66.9C1086.9,847.8,1123.8,809.3,1115,764.6z"/>
			<path fill="#DEECE5" d="M1114.7,764.1c-2.6-13.2-7-25.5-12.2-36.1c-5.3-8.2-12.7-12.7-22.1-9.8c-14.8,21.1-44.3,56.4-73.1,78.5
				c-14,0.1-26.5-6.1-34-15.8c-1.8,36.2,29.4,66.1,68,66.1C1086.6,847,1123.5,808.7,1114.7,764.1z"/>
			<path fill="#DFECE5" d="M1114.5,763.7c-2.5-13-6.9-25.2-12-35.7c-5.5-8.6-13.1-13.3-22.8-10.5c-15.2,20.7-44.6,56.1-73.1,78.9
				c-13.8,0.1-25.9-6-33.3-15.4c-1.5,35.8,29.5,65.3,67.8,65.3C1086.3,846.2,1123.1,808.1,1114.5,763.7z"/>
			<path fill="#E0EDE6" d="M1114.3,763.2c-2.5-12.8-6.7-24.9-11.8-35.3c-5.6-8.9-13.5-13.9-23.4-11.2
				c-15.6,20.3-44.9,55.8-73.1,79.2c-13.5,0.1-25.4-5.8-32.6-15.1c-1.2,35.4,29.6,64.5,67.6,64.5
				C1086,845.5,1122.8,807.5,1114.3,763.2z"/>
			<path fill="#E0EDE6" d="M1114.1,762.8c-2.4-12.7-6.6-24.5-11.6-34.8c-5.8-9.3-14-14.6-24.1-11.9c-16,19.8-45.3,55.5-73.2,79.5
				c-13.2,0.1-24.8-5.7-32-14.7c-0.9,35,29.7,63.8,67.4,63.8C1085.7,844.7,1122.4,806.9,1114.1,762.8z"/>
			<path fill="#E1EDE7" d="M1113.9,762.4c-2.3-12.5-6.5-24.2-11.3-34.4c-6-9.6-14.4-15.2-24.7-12.5c-16.4,19.4-45.6,55.3-73.2,79.9
				c-12.9,0.1-24.3-5.6-31.3-14.4c-0.6,34.6,29.8,63,67.2,63C1085.4,843.9,1122.1,806.3,1113.9,762.4z"/>
			<path fill="#E2EEE7" d="M1113.7,761.9c-2.3-12.4-6.3-23.9-11.1-33.9c-6.2-10-14.8-15.8-25.4-13.2c-16.8,19-45.9,55-73.2,80.2
				c-12.6,0.2-23.8-5.4-30.6-14.1c-0.3,34.2,29.9,62.2,67,62.2C1085.1,843.1,1121.7,805.7,1113.7,761.9z"/>
			<path fill="#E3EEE8" d="M1113.5,761.5c-2.2-12.2-6.2-23.6-10.9-33.5c-6.4-10.4-15.2-16.4-26.1-13.9
				c-17.3,18.6-46.3,54.7-73.3,80.5c-12.3,0.2-23.2-5.3-29.9-13.7c0,33.8,30,61.4,66.8,61.4C1084.8,842.4,1121.4,805.1,1113.5,761.5
				z"/>
			<path fill="#E3EFE9" d="M1113.3,761c-2.1-12-6.1-23.3-10.7-33.1c-6.5-10.7-15.6-17-26.7-14.6c-17.7,18.1-46.6,54.4-73.3,80.9
				c-12,0.2-22.7-5.2-29.2-13.4c0.3,33.4,30.1,60.7,66.7,60.7C1084.5,841.6,1121,804.5,1113.3,761z"/>
			<path fill="#E4EFE9" d="M1113,760.6c-2.1-11.9-6-22.9-10.5-32.6c-6.7-11.1-16-17.7-27.4-15.2c-18.1,17.7-46.9,54.2-73.3,81.2
				c-11.8,0.2-22.2-5-28.5-13c0.6,33.1,30.2,59.9,66.5,59.9C1084.2,840.8,1120.7,803.9,1113,760.6z"/>
			<path fill="#E5F0EA" d="M1112.8,760.2c-2-11.7-5.8-22.6-10.3-32.2c-6.9-11.4-16.4-18.3-28.1-15.9c-18.5,17.3-47.3,53.9-73.3,81.5
				c-11.5,0.2-21.6-4.9-27.8-12.7c0.9,32.7,30.4,59.1,66.3,59.1C1083.9,840,1120.3,803.3,1112.8,760.2z"/>
			<path fill="#E6F0EA" d="M1112.6,759.7c-2-11.5-5.7-22.3-10.1-31.7c-7.1-11.8-16.8-18.9-28.7-16.6c-18.9,16.8-47.6,53.6-73.4,81.9
				c-11.2,0.2-21.1-4.7-27.1-12.3c1.2,32.3,30.5,58.3,66.1,58.3C1083.6,839.2,1120,802.7,1112.6,759.7z"/>
			<path fill="#E6F0EB" d="M1112.4,759.3c-1.9-11.4-5.6-22-9.9-31.3c-7.2-12.1-17.2-19.5-29.4-17.3c-19.3,16.4-47.9,53.3-73.4,82.2
				c-10.9,0.2-20.6-4.6-26.4-12c1.5,31.9,30.6,57.6,65.9,57.6C1083.3,838.5,1119.6,802.1,1112.4,759.3z"/>
			<path fill="#E7F1EB" d="M1112.2,758.8c-1.8-11.2-5.4-21.7-9.6-30.9c-7.4-12.5-17.6-20.1-30-18c-19.7,16-48.3,53-73.4,82.6
				c-10.6,0.2-20-4.5-25.7-11.7c1.8,31.5,30.7,56.8,65.7,56.8C1083,837.7,1119.2,801.5,1112.2,758.8z"/>
			<path fill="#E8F1EC" d="M1112,758.4c-1.8-11-5.3-21.4-9.4-30.4c-7.6-12.9-18-20.8-30.7-18.6c-20.1,15.5-48.6,52.8-73.4,82.9
				c-10.3,0.2-19.5-4.3-25.1-11.3c2.1,31.1,30.8,56,65.5,56C1082.7,836.9,1118.9,800.8,1112,758.4z"/>
			<path fill="#E8F2EC" d="M1111.8,758c-1.7-10.9-5.2-21-9.2-30c-7.8-13.2-18.4-21.4-31.4-19.3c-20.5,15.1-48.9,52.5-73.5,83.2
				c-10.1,0.2-18.9-4.2-24.4-11c2.5,30.7,30.9,55.2,65.4,55.2C1082.4,836.1,1118.5,800.2,1111.8,758z"/>
			<path fill="#E9F2ED" d="M1111.6,757.5c-1.7-10.7-5-20.7-9-29.5c-8-13.6-18.8-22-32-20c-21,14.7-49.3,52.2-73.5,83.6
				c-9.8,0.2-18.4-4.1-23.7-10.6c2.8,30.3,31,54.4,65.2,54.4C1082.1,835.4,1118.2,799.6,1111.6,757.5z"/>
			<path fill="#EAF2EE" d="M1111.3,757.1c-1.6-10.5-4.9-20.4-8.8-29.1c-8.1-13.9-19.2-22.6-32.7-20.7
				c-21.4,14.2-49.6,51.9-73.5,83.9c-9.5,0.2-17.9-3.9-23-10.3c3.1,29.9,31.1,53.7,65,53.7C1081.8,834.6,1117.8,799,1111.3,757.1z"
				/>
			<path fill="#EBF3EE" d="M1111.1,756.6c-1.6-10.4-4.8-20.1-8.6-28.7c-8.3-14.3-19.6-23.2-33.4-21.3
				c-21.8,13.8-49.9,51.7-73.5,84.2c-9.2,0.2-17.3-3.8-22.3-10c3.4,29.5,31.2,52.9,64.8,52.9
				C1081.5,833.8,1117.4,798.4,1111.1,756.6z"/>
			<path fill="#EBF3EF" d="M1110.9,756.2c-1.5-10.2-4.7-19.8-8.4-28.2c-8.5-14.7-20-23.8-34-22c-22.2,13.4-50.3,51.4-73.6,84.6
				c-8.9,0.2-16.8-3.6-21.6-9.6C977,810,1004.6,833,1038,833C1081.3,833,1117.1,797.8,1110.9,756.2z"/>
			<path fill="#ECF4EF" d="M1110.7,755.8c-1.5-10-4.5-19.4-8.1-27.8c-8.7-15-20.4-24.5-34.7-22.7c-22.6,12.9-50.6,51.1-73.6,84.9
				c-8.6,0.2-16.3-3.5-20.9-9.3c4,28.7,31.4,51.3,64.4,51.3C1081,832.3,1116.7,797.2,1110.7,755.8z"/>
			<path fill="#EDF4F0" d="M1110.5,755.3c-1.4-9.9-4.4-19.1-7.9-27.3c-8.9-15.4-20.8-25.1-35.3-23.4c-23,12.5-50.9,50.8-73.6,85.3
				c-8.3,0.2-15.7-3.4-20.2-8.9c4.3,28.3,31.5,50.6,64.2,50.6C1080.7,831.5,1116.3,796.6,1110.5,755.3z"/>
			<path fill="#EDF4F0" d="M1110.3,754.9c-1.3-9.7-4.3-18.8-7.7-26.9c-9-15.7-21.2-25.7-36-24.1c-23.4,12.1-51.3,50.5-73.7,85.6
				c-8.1,0.2-15.2-3.2-19.5-8.6c4.6,27.9,31.6,49.8,64,49.8C1080.4,830.7,1116,796,1110.3,754.9z"/>
			<path fill="#EEF5F1" d="M1110.1,754.4c-1.3-9.5-4.1-18.5-7.5-26.5c-9.2-16.1-22.1-28.9-36.7-24.7c-25.5,7.3-51.6,50.3-73.7,85.9
				c-7.8,0.2-14.6-3.1-18.9-8.3c4.9,27.6,31.7,49,63.9,49C1080.1,829.9,1115.6,795.4,1110.1,754.4z"/>
			<path fill="#EFF5F1" d="M1109.9,754c-1.2-9.4-4-18.2-7.3-26c-9.4-16.4-22.5-29.5-37.3-25.4c-25.8,7-51.9,50-73.7,86.3
				c-7.5,0.2-14.1-3-18.2-7.9c5.2,27.2,31.8,48.2,63.7,48.2C1079.8,829.1,1115.2,794.8,1109.9,754z"/>
			<path fill="#EFF6F2" d="M1109.6,753.6c-1.2-9.2-3.9-17.8-7.1-25.6c-9.6-16.8-22.8-30-38-26.1c-26.1,6.7-52.2,49.7-73.7,86.6
				c-7.2,0.2-13.6-2.8-17.5-7.6c5.5,26.8,31.9,47.5,63.5,47.5C1079.5,828.4,1114.9,794.2,1109.6,753.6z"/>
			<path fill="#F0F6F3" d="M1109.4,753.1c-1.1-9-3.7-17.5-6.9-25.1c-9.7-17.2-23.2-30.5-38.7-26.8c-26.3,6.5-52.6,49.4-73.8,86.9
				c-6.9,0.2-13-2.7-16.8-7.2c5.8,26.4,32,46.7,63.3,46.7C1079.2,827.6,1114.5,793.6,1109.4,753.1z"/>
			<path fill="#F1F6F3" d="M1109.2,752.7c-1.1-8.9-3.6-17.2-6.7-24.7c-9.9-17.5-23.6-31.1-39.3-27.4c-26.6,6.2-52.9,49.2-73.8,87.3
				c-6.6,0.2-12.5-2.5-16.1-6.9c6.1,26,32.1,45.9,63.1,45.9C1078.9,826.8,1114.1,793,1109.2,752.7z"/>
			<path fill="#F1F7F4" d="M1109,752.2c-1-8.7-3.5-16.9-6.4-24.3c-10.1-17.9-23.9-31.6-40-28.1c-26.9,5.9-53.2,48.9-73.8,87.6
				c-6.4,0.2-12-2.4-15.4-6.6c6.4,25.6,32.2,45.1,62.9,45.1C1078.6,826,1113.7,792.4,1109,752.2z"/>
			<path fill="#F2F7F4" d="M1108.8,751.8c-1-8.5-3.4-16.6-6.2-23.8c-10.3-18.2-24.3-32.2-40.6-28.8c-27.2,5.6-53.6,48.6-73.8,87.9
				c-6.1,0.2-11.4-2.3-14.7-6.2c6.7,25.2,32.3,44.3,62.7,44.3C1078.3,825.3,1113.3,791.8,1108.8,751.8z"/>
			<path fill="#F3F8F5" d="M1108.6,751.4c-0.9-8.4-3.2-16.3-6-23.4c-10.5-18.6-24.7-32.7-41.3-29.5c-27.6,5.3-53.9,48.3-73.9,88.3
				c-5.8,0.2-10.9-2.1-14-5.9c7,24.8,32.4,43.6,62.6,43.6C1078,824.5,1113,791.2,1108.6,751.4z"/>
			<path fill="#F3F8F5" d="M1108.4,750.9c-0.9-8.2-3.1-15.9-5.8-22.9c-10.6-19-25.1-33.2-42-30.2c-27.9,5.1-54.2,48-73.9,88.6
				c-5.5,0.2-10.4-2-13.3-5.5c7.3,24.4,32.6,42.8,62.4,42.8C1077.7,823.7,1112.6,790.6,1108.4,750.9z"/>
			<path fill="#F4F8F6" d="M1108.1,750.5c-0.8-8-3-15.6-5.6-22.5c-10.8-19.3-25.4-33.7-42.6-30.8c-28.2,4.8-54.6,47.8-73.9,89
				c-5.2,0.2-9.8-1.8-12.6-5.2c7.6,24,32.7,42,62.2,42C1077.4,822.9,1112.2,790,1108.1,750.5z"/>
			<path fill="#F5F9F6" d="M1107.9,750c-0.8-7.8-2.8-15.3-5.4-22.1c-11-19.7-25.8-34.3-43.3-31.5c-28.5,4.5-54.9,47.5-74,89.3
				c-4.9,0.3-9.3-1.7-12-4.8c7.9,23.6,32.8,41.2,62,41.2C1077.1,822.2,1111.8,789.4,1107.9,750z"/>
			<path fill="#F5F9F7" d="M1107.7,749.6c-0.7-7.7-2.7-15-5.2-21.6c-11.2-20-26.2-34.8-44-32.2c-28.9,4.2-55.2,47.2-74,89.6
				c-4.6,0.3-8.7-1.6-11.3-4.5c8.2,23.2,32.9,40.5,61.8,40.5C1076.8,821.4,1111.4,788.8,1107.7,749.6z"/>
			<path fill="#F6F9F7" d="M1107.5,749.2c-0.7-7.5-2.6-14.7-5-21.2c-11.4-20.4-26.6-35.3-44.6-32.9c-29.2,4-55.6,46.9-74,90
				c-4.4,0.3-8.2-1.4-10.6-4.2c8.5,22.8,33,39.7,61.6,39.7C1076.5,820.6,1111,788.2,1107.5,749.2z"/>
			<path fill="#F7FAF8" d="M1107.3,748.7c-0.6-7.3-2.4-14.3-4.7-20.7c-11.5-20.7-27-35.8-45.3-33.5c-29.6,3.7-55.9,46.6-74,90.3
				c-4.1,0.3-7.7-1.3-9.9-3.8c8.8,22.5,33.1,38.9,61.4,38.9C1076.2,819.8,1110.6,787.6,1107.3,748.7z"/>
			<path fill="#F7FAF9" d="M1107.1,748.3c-0.6-7.2-2.3-14-4.5-20.3c-11.7-21.1-27.4-36.3-45.9-34.2c-29.9,3.4-56.2,46.4-74.1,90.6
				c-3.8,0.3-7.1-1.2-9.2-3.5c9.1,22.1,33.2,38.1,61.3,38.1C1075.9,819,1110.2,787,1107.1,748.3z"/>
			<path fill="#F8FBF9" d="M1106.9,747.8c-0.5-7-2.2-13.7-4.3-19.9c-11.9-21.5-27.7-36.9-46.6-34.9c-30.3,3.2-56.6,46.1-74.1,91
				c-3.5,0.3-6.6-1-8.5-3.1c9.4,21.7,33.3,37.4,61.1,37.4C1075.6,818.3,1109.8,786.4,1106.9,747.8z"/>
			<path fill="#F8FBFA" d="M1106.7,747.4c-0.5-6.8-2.1-13.4-4.1-19.4c-12.1-21.8-28.1-37.4-47.3-35.6c-30.6,2.9-56.9,45.8-74.1,91.3
				c-3.2,0.3-6.1-0.9-7.8-2.8c9.7,21.3,33.4,36.6,60.9,36.6C1075.3,817.5,1109.3,785.8,1106.7,747.4z"/>
			<path fill="#F9FBFA" d="M1106.4,747c-0.4-6.7-1.9-13.1-3.9-19c-12.2-22.2-28.5-37.9-47.9-36.2c-31,2.6-57.2,45.5-74.1,91.6
				c-2.9,0.3-5.5-0.7-7.1-2.5c10,20.9,33.5,35.8,60.7,35.8C1075,816.7,1108.9,785.2,1106.4,747z"/>
			<path fill="#FAFCFB" d="M1106.2,746.5c-0.4-6.5-1.8-12.7-3.7-18.5c-12.4-22.5-28.9-38.4-48.6-36.9c-31.4,2.4-57.6,45.3-74.2,92
				c-2.6,0.3-5-0.6-6.4-2.1c10.3,20.5,33.6,35,60.5,35C1074.7,815.9,1108.5,784.6,1106.2,746.5z"/>
			<path fill="#FAFCFB" d="M1106,746.1c-0.3-6.3-1.7-12.4-3.5-18.1c-12.6-22.9-29.3-38.9-49.3-37.6c-31.8,2.1-57.9,45-74.2,92.3
				c-2.4,0.3-4.5-0.5-5.8-1.8c10.6,20.1,33.7,34.2,60.3,34.2C1074.4,815.2,1108.1,784,1106,746.1z"/>
			<path fill="#FBFCFC" d="M1105.8,745.6c-0.3-6.2-1.5-12.1-3.3-17.7c-12.8-23.3-29.7-39.4-49.9-38.3c-32.1,1.8-58.2,44.7-74.2,92.7
				c-2.1,0.3-3.9-0.3-5.1-1.4c10.9,19.7,33.8,33.5,60.1,33.5C1074.1,814.4,1107.6,783.4,1105.8,745.6z"/>
			<path fill="#FBFDFC" d="M1105.6,745.2c-0.3-6-1.4-11.8-3-17.2c-13-23.6-30.1-40-50.6-39c-32.5,1.6-58.6,44.4-74.2,93
				c-1.8,0.3-3.4-0.2-4.4-1.1c11.2,19.3,33.9,32.7,60,32.7C1073.8,813.6,1107.2,782.8,1105.6,745.2z"/>
			<path fill="#FCFDFC" d="M1105.4,744.8c-0.2-5.8-1.3-11.5-2.8-16.8c-13.1-24-30.5-40.5-51.2-39.6c-32.9,1.3-58.9,44.1-74.3,93.3
				c-1.5,0.3-2.8-0.1-3.7-0.8c11.6,18.9,34,31.9,59.8,31.9C1073.5,812.8,1106.7,782.2,1105.4,744.8z"/>
			<path fill="#FCFDFD" d="M1105.2,744.3c-0.2-5.7-1.1-11.2-2.6-16.3c-13.3-24.3-30.9-41-51.9-40.3c-33.3,1-59.2,43.9-74.3,93.7
				c-1.2,0.3-2.3,0.1-3-0.4c11.9,18.5,34.1,31.1,59.6,31.1C1073.2,812.1,1106.3,781.6,1105.2,744.3z"/>
			<path fill="#FDFDFD" d="M1105,743.9c-0.1-5.5-1-10.8-2.4-15.9c-13.5-24.7-31.3-41.5-52.6-41c-33.7,0.8-59.6,43.6-74.3,94
				c-0.9,0.3-1.8,0.2-2.3-0.1c12.2,18.1,34.2,30.4,59.4,30.4C1072.9,811.3,1105.8,781,1105,743.9z"/>
			<path fill="#FDFEFE" d="M1104.7,743.4c-0.1-5.3-0.9-10.5-2.2-15.5c-13.7-25-31.7-42-53.2-41.7c-34.1,0.5-59.9,43.3-74.4,94.3
				c-0.7,0.3-1.2,0.4-1.6,0.3c12.5,17.7,34.3,29.6,59.2,29.6C1072.6,810.5,1105.3,780.4,1104.7,743.4z"/>
			<path fill="#FEFEFE" d="M1104.5,743c0-5.2-0.8-10.2-2-15c-13.9-25.4-32.1-42.5-53.9-42.3c-34.5,0.3-60.2,43-74.4,94.7
				c-0.4,0.3-0.7,0.5-0.9,0.6c12.8,17.3,34.4,28.8,59,28.8C1072.3,809.7,1104.8,779.8,1104.5,743z"/>
			<path fill="#FCFCFC" d="M1032.2,808.9c39.8,0,72.1-29.7,72.1-66.4c0-5-0.6-9.9-1.8-14.6c-14-25.8-32.5-43-54.6-43
				c-34.9,0-60.6,42.8-74.4,95c-0.1,0.3-0.2,0.6-0.2,0.9C986.4,797.9,1007.9,808.9,1032.2,808.9z"/>
		</g>
		<path opacity="0.8" fill="#8AA97C" d="M1104.3,795.8c0,10.8-8.2,19.6-18.3,19.6c-10.1,0-18.3-8.8-18.3-19.6
			c0-10.8,14.3-31.9,24.4-31.9C1102.2,764,1104.3,785,1104.3,795.8z"/>
		<path opacity="0.8" fill="#8AA97C" d="M1095.4,836.7c0,3.9-4.2,7.1-9.4,7.1s-9.4-3.2-9.4-7.1c0-3.9,7.4-11.6,12.6-11.6
			S1095.4,832.7,1095.4,836.7z"/>
		
			<ellipse transform="matrix(0.9592 -0.2827 0.2827 0.9592 -183.3307 312.7595)" opacity="0.8" fill="#8AA97C" cx="992.2" cy="791.7" rx="14.3" ry="17.4"/>
		<path opacity="0.8" fill="#8AA97C" d="M1040.6,698.1c9.9,4.6,5.8,34.7-1,49.4c-6.8,14.7-20.4,22.9-30.3,18.3
			c-9.9-4.6-12.5-20.2-5.7-35C1010.4,716.1,1030.7,693.5,1040.6,698.1z"/>
	</g>
	<polygon fill="#D8DED1" points="1043.3,773.1 1049.9,746.6 1076.3,752.7 1087,720.6 1107.6,737.8 1105,739.5 1090.1,727 
		1080.1,756.5 1053.4,751.7 1046.5,774.2 	"/>
</g>
<g id="Tree">
	<g id="Sombra">
	</g>
	<g>
		<ellipse opacity="0.6" fill="#939393" cx="195.1" cy="1004" rx="35.2" ry="8.6"/>
		<ellipse opacity="0.6" fill="#939393" cx="226.3" cy="1011.9" rx="22.6" ry="8.6"/>
		<ellipse opacity="0.6" fill="#939393" cx="244.9" cy="1002" rx="30.5" ry="12"/>
		<path fill="#4E4030" d="M211.1,997.2l0.5-38.1c0.1-6.5-5.2-11.9-11.7-11.9h-30c-5.6,0-10.2-4.6-10.2-10.2v-9.2
			c0-1-0.7-1.9-1.8-2.1l-1.6-0.2c-4.2-0.6-7.3-4.2-7.5-8.4l-0.1-3.4c-0.2-5.3,4-9.7,9.3-9.7h0.1l-0.6-33.1c-0.1-4.7,3.5-8.6,8.2-8.8
			l0.1,0c2.9-0.2,5.4,2.1,5.4,5l0.8,71.1h38.5c7.5,0,13.4-6.1,13.3-13.6l-0.2-9.5c-0.1-6.2-5.1-11.3-11.3-11.5l-0.2,0
			c-5.1-0.2-9.2-4.3-9.2-9.4l-0.7-37.3l13.8,0.8l-1.6,18.7h8.1v8.9L215,887l0,0.1c-0.4,4.8,3.3,8.9,8.1,8.9h3.5
			c6.7,0,12.1,5.3,12.4,12l0.4,13.2l21.2,0.8v-34.2l13-0.8l0.7,37.1c0.1,4.7-3.6,8.7-8.3,9l-16,1.1c-6.4,0.4-11.4,5.7-11.5,12.1
			l-0.6,52.6c-0.1,5.6-4.6,10.1-10.2,10.1h-4.9C216.2,1009.1,211,1003.7,211.1,997.2z"/>
		<ellipse fill="#7C9072" cx="279.2" cy="886.2" rx="52.9" ry="25.2"/>
		<ellipse fill="#7C9072" cx="160" cy="874" rx="48.4" ry="30.9"/>
		<ellipse fill="#104E29" cx="212.3" cy="860.6" rx="69" ry="42.7"/>
	</g>
	<g>
		<ellipse opacity="0.6" fill="#939393" cx="1819.9" cy="934.8" rx="35.2" ry="8.6"/>
		<ellipse opacity="0.6" fill="#939393" cx="1851.1" cy="942.8" rx="22.6" ry="8.6"/>
		<ellipse opacity="0.6" fill="#939393" cx="1869.7" cy="932.8" rx="30.5" ry="12"/>
		<path fill="#4E4030" d="M1835.9,928.1l0.5-38.1c0.1-6.5-5.2-11.9-11.7-11.9h-30c-5.6,0-10.2-4.6-10.2-10.2v-9.2
			c0-1-0.7-1.9-1.8-2.1l-1.6-0.2c-4.2-0.6-7.3-4.2-7.5-8.4l-0.1-3.4c-0.2-5.3,4-9.7,9.3-9.7h0.1l-0.6-33.1c-0.1-4.7,3.5-8.6,8.2-8.8
			l0.1,0c2.9-0.2,5.4,2.1,5.4,5l0.8,71.1h38.5c7.5,0,13.4-6.1,13.3-13.6l-0.2-9.5c-0.1-6.2-5.1-11.3-11.3-11.5l-0.2,0
			c-5.1-0.2-9.2-4.3-9.2-9.4l-0.7-37.3l13.8,0.8l-1.6,18.7h8.1v8.9l-7.3,1.6l0,0.1c-0.4,4.8,3.3,8.9,8.1,8.9h3.5
			c6.7,0,12.1,5.3,12.4,12l0.4,13.2l21.2,0.8v-34.2l13-0.8l0.7,37.1c0.1,4.7-3.6,8.7-8.3,9l-16,1.1c-6.4,0.4-11.4,5.7-11.5,12.1
			l-0.6,52.6c-0.1,5.6-4.6,10.1-10.2,10.1h-4.9C1841,939.9,1835.8,934.6,1835.9,928.1z"/>
		<ellipse fill="#7C9072" cx="1904" cy="817.1" rx="52.9" ry="25.2"/>
		<ellipse fill="#7C9072" cx="1784.9" cy="804.9" rx="48.4" ry="30.9"/>
		<ellipse fill="#104E29" cx="1837.1" cy="791.4" rx="69" ry="42.7"/>
	</g>
	<g>
		<ellipse opacity="0.6" fill="#939393" cx="1445.7" cy="763.3" rx="20.4" ry="5.8"/>
		<ellipse opacity="0.6" fill="#939393" cx="1463.8" cy="768.6" rx="13.1" ry="5.8"/>
		<ellipse opacity="0.6" fill="#939393" cx="1474.5" cy="761.9" rx="17.7" ry="8.1"/>
		<path fill="#4E4030" d="M1454.9,758.7l0.3-25.7c0-4.4-3-8-6.8-8h-17.4c-3.2,0-5.9-3.1-5.9-6.9v-6.2c0-0.7-0.4-1.3-1-1.4l-0.9-0.2
			c-2.4-0.4-4.2-2.8-4.3-5.7l-0.1-2.3c-0.1-3.6,2.3-6.5,5.4-6.5h0.1l-0.4-22.4c-0.1-3.1,2-5.8,4.7-6l0.1,0c1.7-0.1,3.1,1.4,3.1,3.4
			l0.4,48h22.3c4.3,0,7.8-4.1,7.7-9.2l-0.1-6.4c-0.1-4.2-3-7.6-6.5-7.8l-0.1,0c-2.9-0.1-5.3-2.9-5.3-6.4l-0.4-25.1l8,0.5l-0.9,12.6
			h4.7v6l-4.2,1.1l0,0.1c-0.3,3.2,1.9,6,4.7,6h2c3.9,0,7,3.6,7.1,8.1l0.2,8.9l12.2,0.5v-23l7.5-0.5l0.4,25c0,3.2-2.1,5.9-4.8,6.1
			l-9.3,0.7c-3.7,0.3-6.6,3.9-6.6,8.2l-0.3,35.4c0,3.8-2.7,6.8-5.9,6.8h-2.8C1457.9,766.7,1454.9,763.1,1454.9,758.7z"/>
		<ellipse fill="#7C9072" cx="1494.4" cy="683.8" rx="30.6" ry="17"/>
		<ellipse fill="#7C9072" cx="1425.5" cy="675.6" rx="28" ry="20.9"/>
		<ellipse fill="#104E29" cx="1455.7" cy="666.5" rx="39.9" ry="28.8"/>
	</g>
	<g>
		<ellipse opacity="0.6" fill="#939393" cx="1113.9" cy="619.7" rx="9.6" ry="3.6"/>
		<ellipse opacity="0.6" fill="#939393" cx="1122.4" cy="623" rx="6.1" ry="3.6"/>
		<ellipse opacity="0.6" fill="#939393" cx="1127.5" cy="618.8" rx="8.3" ry="5"/>
		<path fill="#4E4030" d="M1118.3,616.8l0.1-16c0-2.7-1.4-5-3.2-5h-8.2c-1.5,0-2.8-1.9-2.8-4.3v-3.9c0-0.4-0.2-0.8-0.5-0.9l-0.4-0.1
			c-1.1-0.3-2-1.8-2-3.5l0-1.4c-0.1-2.2,1.1-4.1,2.5-4.1h0l-0.2-13.9c0-2,1-3.6,2.2-3.7l0,0c0.8-0.1,1.5,0.9,1.5,2.1l0.2,29.8h10.5
			c2,0,3.7-2.6,3.6-5.7l-0.1-4c0-2.6-1.4-4.7-3.1-4.8l-0.1,0c-1.4-0.1-2.5-1.8-2.5-4l-0.2-15.6l3.8,0.3l-0.4,7.9h2.2v3.8l-2,0.7l0,0
			c-0.1,2,0.9,3.7,2.2,3.7h1c1.8,0,3.3,2.2,3.4,5l0.1,5.6l5.8,0.3v-14.3l3.5-0.3l0.2,15.6c0,2-1,3.6-2.2,3.8l-4.4,0.5
			c-1.7,0.2-3.1,2.4-3.1,5.1l-0.2,22.1c0,2.4-1.3,4.2-2.8,4.2h-1.3C1119.7,621.8,1118.3,619.6,1118.3,616.8z"/>
		<ellipse fill="#7C9072" cx="1136.8" cy="570.2" rx="14.4" ry="10.6"/>
		<ellipse fill="#7C9072" cx="1104.4" cy="565.1" rx="13.2" ry="13"/>
		<ellipse fill="#104E29" cx="1118.6" cy="559.5" rx="18.8" ry="17.9"/>
	</g>
	<g>
		<ellipse opacity="0.6" fill="#939393" cx="663.5" cy="1009.8" rx="35.2" ry="8.6"/>
		<ellipse opacity="0.6" fill="#939393" cx="694.7" cy="1017.8" rx="22.6" ry="8.6"/>
		<ellipse opacity="0.6" fill="#939393" cx="713.3" cy="1007.8" rx="30.5" ry="12"/>
		<path fill="#4E4030" d="M679.4,1003.1l0.5-38.1c0.1-6.5-5.2-11.9-11.7-11.9h-30c-5.6,0-10.2-4.6-10.2-10.2v-9.2
			c0-1-0.7-1.9-1.8-2.1l-1.6-0.2c-4.2-0.6-7.3-4.2-7.5-8.4l-0.1-3.4c-0.2-5.3,4-9.7,9.3-9.7h0.1l-0.6-33.1c-0.1-4.7,3.5-8.6,8.2-8.8
			l0.1,0c2.9-0.2,5.4,2.1,5.4,5l0.8,71.1h38.5c7.5,0,13.4-6.1,13.3-13.6l-0.2-9.5c-0.1-6.2-5.1-11.3-11.3-11.5l-0.2,0
			c-5.1-0.2-9.2-4.3-9.2-9.4l-0.7-37.3l13.8,0.8l-1.6,18.7h8.1v8.9l-7.3,1.6l0,0.1c-0.4,4.8,3.3,8.9,8.1,8.9h3.5
			c6.7,0,12.1,5.3,12.4,12l0.4,13.2l21.2,0.8v-34.2l13-0.8l0.7,37.1c0.1,4.7-3.6,8.7-8.3,9l-16,1.1c-6.4,0.4-11.4,5.7-11.5,12.1
			l-0.6,52.6c-0.1,5.6-4.6,10.1-10.2,10.1h-4.9C684.6,1014.9,679.3,1009.6,679.4,1003.1z"/>
		<ellipse fill="#7C9072" cx="747.6" cy="892.1" rx="52.9" ry="25.2"/>
		<ellipse fill="#7C9072" cx="628.4" cy="879.9" rx="48.4" ry="30.9"/>
		<ellipse fill="#104E29" cx="680.7" cy="866.4" rx="69" ry="42.7"/>
	</g>
	<g>
		<ellipse opacity="0.6" fill="#939393" cx="442.6" cy="816.7" rx="24.9" ry="6.1"/>
		<ellipse opacity="0.6" fill="#939393" cx="464.6" cy="822.3" rx="16" ry="6.1"/>
		<ellipse opacity="0.6" fill="#939393" cx="477.8" cy="815.3" rx="21.6" ry="8.5"/>
		<path fill="#4E4030" d="M453.8,811.9l0.4-27c0.1-4.6-3.7-8.4-8.3-8.4h-21.2c-4,0-7.2-3.2-7.2-7.2v-6.5c0-0.7-0.5-1.3-1.2-1.5
			l-1.1-0.2c-3-0.5-5.2-3-5.3-5.9l-0.1-2.4c-0.1-3.7,2.8-6.8,6.6-6.8h0.1l-0.5-23.4c-0.1-3.3,2.5-6.1,5.8-6.3l0.1,0
			c2.1-0.1,3.8,1.5,3.8,3.6l0.5,50.3h27.2c5.3,0,9.5-4.3,9.4-9.6l-0.2-6.7c-0.1-4.4-3.6-8-8-8.1l-0.1,0c-3.6-0.1-6.5-3.1-6.5-6.7
			l-0.5-26.4l9.8,0.6l-1.2,13.2h5.8v6.3l-5.2,1.2l0,0.1c-0.3,3.4,2.3,6.3,5.7,6.3h2.5c4.7,0,8.6,3.7,8.7,8.5l0.3,9.4l15,0.6v-24.2
			l9.2-0.6l0.5,26.3c0.1,3.3-2.5,6.1-5.8,6.4l-11.3,0.8c-4.5,0.3-8.1,4.1-8.1,8.6l-0.4,37.2c0,4-3.3,7.2-7.2,7.2h-3.4
			C457.5,820.3,453.8,816.5,453.8,811.9z"/>
		<ellipse fill="#7C9072" cx="502.1" cy="733.4" rx="37.4" ry="17.8"/>
		<ellipse fill="#7C9072" cx="417.8" cy="724.8" rx="34.2" ry="21.9"/>
		<ellipse fill="#104E29" cx="454.7" cy="715.3" rx="48.8" ry="30.2"/>
	</g>
	<g>
		<ellipse opacity="0.6" fill="#939393" cx="589.4" cy="675.6" rx="13.9" ry="4.2"/>
		<ellipse opacity="0.6" fill="#939393" cx="601.7" cy="679.4" rx="8.9" ry="4.2"/>
		<ellipse opacity="0.6" fill="#939393" cx="609" cy="674.6" rx="12.1" ry="5.8"/>
		<path fill="#4E4030" d="M595.7,672.3l0.2-18.5c0-3.2-2-5.8-4.6-5.8h-11.8c-2.2,0-4-2.2-4-4.9v-4.5c0-0.5-0.3-0.9-0.7-1l-0.6-0.1
			c-1.7-0.3-2.9-2-3-4.1l-0.1-1.6c-0.1-2.6,1.6-4.7,3.7-4.7h0l-0.3-16.1c0-2.3,1.4-4.2,3.2-4.3l0.1,0c1.2-0.1,2.1,1,2.1,2.5
			l0.3,34.5h15.2c2.9,0,5.3-3,5.2-6.6l-0.1-4.6c-0.1-3-2-5.5-4.5-5.6l-0.1,0c-2-0.1-3.6-2.1-3.6-4.6l-0.3-18.1l5.5,0.4l-0.6,9.1h3.2
			v4.3l-2.9,0.8l0,0c-0.2,2.3,1.3,4.3,3.2,4.3h1.4c2.6,0,4.8,2.6,4.9,5.8l0.2,6.4l8.3,0.4v-16.6l5.1-0.4l0.3,18
			c0,2.3-1.4,4.2-3.3,4.4l-6.3,0.5c-2.5,0.2-4.5,2.8-4.5,5.9l-0.2,25.5c0,2.7-1.8,4.9-4,4.9h-1.9C597.7,678,595.6,675.5,595.7,672.3
			z"/>
		<ellipse fill="#7C9072" cx="622.6" cy="618.4" rx="20.9" ry="12.2"/>
		<ellipse fill="#7C9072" cx="575.5" cy="612.5" rx="19.1" ry="15"/>
		<ellipse fill="#104E29" cx="596.2" cy="606" rx="27.2" ry="20.7"/>
	</g>
</g>
</svg>
