<?xml version="1.0" encoding="UTF-8" standalone="no"?>
<svg width="491px" height="512px" viewBox="0 0 491 512" version="1.1" xmlns="http://www.w3.org/2000/svg" xmlns:xlink="http://www.w3.org/1999/xlink">
    <!-- Generator: Sketch 3.6.1 (26313) - http://www.bohemiancoding.com/sketch -->
    <title>admissions</title>
    <desc>Created with Sketch.</desc>
    <defs></defs>
    <g id="Page-1" stroke="none" stroke-width="1" fill="none" fill-rule="evenodd">
        <g id="admissions" fill="#FFFFFF">
            <path d="M155.9,212 C156.8,212.4 157.8,212.7 158.7,213.1 L160.6,213.8 C161.4,214.1 162.1,214.4 163,214.7 C170.5,217 178.4,218.2 186.4,218.3 L186.4,218.3 C189.1,218.3 191.7,218.2 194.3,217.9 C195.3,217.8 196.2,217.7 197.2,217.5 L198.7,217.3 C199.9,217.1 201,217 202.2,216.7 C203,216.5 203.7,216.4 204.4,216.2 L206.3,215.7 C207.4,215.4 208.5,215.2 209.7,214.8 C210.3,214.6 210.8,214.4 211.4,214.2 L213,213.6 C214.3,213.2 215.5,212.7 216.8,212.2 C217.3,212 217.8,211.7 218.7,211.3 C220.4,210.6 222,209.8 223.8,208.8 L224.7,208.2 C226.5,207.2 228.3,206.1 230.1,205 L230.8,204.5 C252,189.9 264.7,165.8 264.7,140 C264.7,96.8 229.6,61.6 186.3,61.6 C145.1,61.6 110.7,93.9 108.2,135.1 L108.1,136.1 C108,137.4 107.9,138.7 107.9,140 C108,171.4 126.8,199.7 155.9,212 L155.9,212 Z M123.7,137 L123.8,135.8 C125.9,102.8 153.4,76.9 186.4,76.9 C221,76.9 249.2,105.1 249.2,139.8 C249.2,160.6 238.8,180 222,191.5 L221.3,192 C220,192.9 218.6,193.7 217.2,194.5 L216.4,195 C215.1,195.7 213.8,196.3 212.4,196.9 L210.9,197.6 C210,198 209,198.3 208.1,198.6 L205.1,199.7 C204.3,199.9 203.6,200.1 202.8,200.3 L200.5,200.9 C200,201 199.5,201.2 199.1,201.3 C198.3,201.5 197.5,201.6 196.7,201.7 L194.6,202 C194.1,202.1 193.6,202.2 192.9,202.2 C190.8,202.4 188.7,202.5 186.5,202.5 C180.1,202.5 173.8,201.5 167.8,199.7 C167.3,199.5 166.8,199.3 166.3,199.2 L164,198.4 C163.3,198.2 162.6,197.9 162,197.7 C138.7,187.8 123.6,165.1 123.6,139.8 C123.5,138.8 123.6,137.9 123.7,137 L123.7,137 Z M321.5,233.3 C300,233.3 280,239.7 263.1,250.5 C241.2,233.3 214.2,223.7 186.2,223.7 C117.5,223.7 61.6,279.6 61.6,348.4 C61.6,349.5 61.7,350.6 61.7,351.8 L62.1,360.9 L214.4,360.9 C223.3,412 267.9,451 321.5,451 C381.5,451 430.3,402.2 430.3,342.2 C430.3,282.2 381.5,233.3 321.5,233.3 L321.5,233.3 Z M212.7,345.3 L77.2,345.3 C78.8,286.6 127.1,239.3 186.3,239.3 C209.3,239.3 231.7,246.6 250.3,260.1 C249.9,260.4 249.6,260.8 249.3,261.1 C247,263.2 244.7,265.3 242.6,267.6 C242.1,268.2 241.6,268.8 241,269.3 C239,271.6 237,273.9 235.1,276.3 C234.7,276.9 234.2,277.4 233.8,278 C231.9,280.6 230.2,283.2 228.5,285.9 L227.6,287.4 C225.9,290.3 224.4,293.2 223,296.3 C222.8,296.7 222.6,297.1 222.4,297.5 C221,300.6 219.7,303.9 218.6,307.1 C218.5,307.4 218.4,307.7 218.2,308.1 C217.1,311.4 216.2,314.7 215.4,318.1 C215.3,318.5 215.2,318.8 215.1,319.2 C214.4,322.5 213.9,325.8 213.4,329.2 C213.3,329.7 213.2,330.1 213.2,330.6 C212.8,334.4 212.6,338.3 212.6,342.2 C212.7,343.2 212.7,344.2 212.7,345.3 L212.7,345.3 Z M321.5,435.4 C273.5,435.4 233.8,398.9 228.8,352.2 C228.4,348.7 228.2,345.4 228.2,342.2 C228.2,338.7 228.4,335.1 228.8,331.6 C228.9,330.8 229,330.1 229.1,329.3 C229.5,326.5 230,323.8 230.6,321 C230.8,320.3 230.9,319.6 231.1,318.9 C231.8,316 232.7,313.2 233.7,310.5 C233.9,310 234,309.6 234.2,309.1 C235.4,305.9 236.8,302.8 238.3,299.8 L238.3,299.7 C241.6,293.2 245.7,287.1 250.5,281.6 L250.6,281.5 C252.8,278.9 255.2,276.5 257.7,274.1 C258.1,273.8 258.4,273.4 258.8,273.1 C261.2,271 263.7,268.9 266.3,267 C266.9,266.6 267.4,266.1 268,265.7 L269.2,264.8 C284,254.8 301.9,249 321,249 C372.4,249 414.3,290.8 414.3,342.3 C414.8,393.6 372.9,435.4 321.5,435.4 L321.5,435.4 Z M375.3,308.2 C380.3,313.3 380.3,321.5 375.3,326.5 L318.4,383.4 C313.5,388.3 305.6,388.4 300.5,383.7 L300.5,383.7 L267.6,350.8 C262.5,345.8 262.5,337.5 267.6,332.5 C272.7,327.4 280.9,327.4 285.9,332.5 L309.2,355.8 L356.9,308.1 C362.1,303.1 370.3,303.1 375.3,308.2 L375.3,308.2 Z" id="Shape"></path>
        </g>
    </g>
</svg>