<?xml version="1.0" encoding="UTF-8" standalone="no"?>
<svg width="512px" height="512px" viewBox="0 0 512 512" version="1.1" xmlns="http://www.w3.org/2000/svg" xmlns:xlink="http://www.w3.org/1999/xlink">
    <!-- Generator: Sketch 3.6.1 (26313) - http://www.bohemiancoding.com/sketch -->
    <title>communications_active</title>
    <desc>Created with Sketch.</desc>
    <defs></defs>
    <g id="Page-1" stroke="none" stroke-width="1" fill="none" fill-rule="evenodd">
        <g id="communications_active">
            <path d="M64,160.02082 L64,448 L448,448 L448,160.02082 L64,160.02082 L64,160.02082 Z M424.015615,424.015615 L87.9843852,424.015615 L87.9843852,184.005205 L424.015615,184.005205 L424.015615,424.015615 L424.015615,424.015615 Z M400.03123,280.026025 L327.994795,280.026025 L327.994795,207.98959 L400.03123,207.98959 L400.03123,280.026025 L400.03123,280.026025 Z M280.026025,327.994795 L111.96877,327.994795 L111.96877,304.01041 L279.942746,304.01041 L279.942746,327.994795 L280.026025,327.994795 Z M280.026025,375.963565 L111.96877,375.963565 L111.96877,351.97918 L279.942746,351.97918 L279.942746,375.963565 L280.026025,375.963565 Z M424.015615,135.953155 L87.9843852,135.953155 L87.9843852,111.96877 L424.015615,111.96877 L424.015615,135.953155 L424.015615,135.953155 Z M400.03123,87.9843852 L111.96877,87.9843852 L111.96877,64 L400.03123,64 L400.03123,87.9843852 L400.03123,87.9843852 Z" id="communications" fill="#FFFFFF"></path>
            <path d="M400.03123,280.026025 L327.994795,280.026025 L327.994795,207.98959 L400.03123,207.98959 L400.03123,280.026025 L400.03123,280.026025 Z" id="Path" fill="#42A8A1"></path>
            <path d="M280.026025,327.994795 L111.96877,327.994795 L111.96877,304.01041 L279.942746,304.01041 L279.942746,327.994795 L280.026025,327.994795 Z" id="Path" fill="#42A8A1"></path>
            <path d="M280.026025,375.963565 L111.96877,375.963565 L111.96877,351.97918 L279.942746,351.97918 L279.942746,375.963565 L280.026025,375.963565 Z" id="Path" fill="#42A8A1"></path>
            <path d="M424.015615,135.953155 L87.9843852,135.953155 L87.9843852,111.96877 L424.015615,111.96877 L424.015615,135.953155 L424.015615,135.953155 Z" id="Path" fill="#FFFFFF"></path>
            <path d="M400.03123,87.9843852 L111.96877,87.9843852 L111.96877,64 L400.03123,64 L400.03123,87.9843852 L400.03123,87.9843852 Z" id="Path" fill="#FFFFFF"></path>
        </g>
    </g>
</svg>