<?xml version="1.0" encoding="UTF-8" standalone="no"?>
<svg width="512px" height="512px" viewBox="0 0 512 512" version="1.1" xmlns="http://www.w3.org/2000/svg" xmlns:xlink="http://www.w3.org/1999/xlink">
    <!-- Generator: Sketch 3.6.1 (26313) - http://www.bohemiancoding.com/sketch -->
    <title>formation_active</title>
    <desc>Created with Sketch.</desc>
    <defs></defs>
    <g id="Page-1" stroke="none" stroke-width="1" fill="none" fill-rule="evenodd">
        <g id="formation_active">
            <path d="M60,425.39709 L133.9,425.39709 L133.9,287.600637 L60,287.600637 L60,425.39709 L60,425.39709 Z M75.8,303.860412 L118.1,303.860412 L118.1,409.240224 L75.8,409.240224 L75.8,303.860412 L75.8,303.860412 Z M166,425.39709 L239.9,425.39709 L239.9,160.91846 L166.1,160.91846 L166.1,425.39709 L166,425.39709 Z M181.8,177.178236 L224.1,177.178236 L224.1,409.240224 L181.8,409.240224 L181.8,177.178236 L181.8,177.178236 Z M378.1,219.782965 L378.1,425.5 L451.9,425.5 L451.9,219.782965 L378.1,219.782965 L378.1,219.782965 Z M436.1,409.240224 L393.8,409.240224 L393.8,235.93983 L436.1,235.93983 L436.1,409.240224 L436.1,409.240224 Z M272,425.39709 L345.9,425.39709 L345.9,86 L272.1,86 L272.1,425.39709 L272,425.39709 Z M287.8,102.156866 L330.1,102.156866 L330.1,409.137314 L287.8,409.137314 L287.8,102.156866 L287.8,102.156866 Z" id="formation" fill="#FFFFFF"></path>
            <path d="M272,425.39709 L345.9,425.39709 L345.9,86 L272.1,86 L272.1,425.39709 L272,425.39709 Z" id="XMLID_11_-path" fill="#45AFA8"></path>
            <path d="M378.1,219.782965 L378.1,425.5 L451.9,425.5 L451.9,219.782965 L378.1,219.782965 L378.1,219.782965 Z" id="XMLID_11_-path" fill="#45AFA8"></path>
        </g>
    </g>
</svg>