<?xml version="1.0" encoding="UTF-8" standalone="no"?>
<svg width="512px" height="512px" viewBox="0 0 512 512" version="1.1" xmlns="http://www.w3.org/2000/svg" xmlns:xlink="http://www.w3.org/1999/xlink">
    <!-- Generator: Sketch 3.6.1 (26313) - http://www.bohemiancoding.com/sketch -->
    <title>parents_active</title>
    <desc>Created with Sketch.</desc>
    <defs></defs>
    <g id="Page-1" stroke="none" stroke-width="1" fill="none" fill-rule="evenodd">
        <g id="parents_active">
            <path d="M340.668924,267.911111 C341.646215,268.355556 342.712351,268.711111 344.489243,269.333333 C345.288845,269.688889 346.177291,269.955556 347.065737,270.222222 C353.729084,272.355556 360.836653,273.422222 368.033068,273.422222 C370.431873,273.422222 372.830677,273.333333 375.318327,273.066667 C376.029084,272.977778 376.828685,272.888889 377.539442,272.711111 L379.049801,272.533333 C380.027092,272.355556 381.093227,272.266667 382.248207,272 C382.958964,271.822222 383.669721,271.644444 384.380478,271.466667 L385.357769,271.2 C386.512749,270.933333 387.667729,270.666667 389.000398,270.222222 L392.021116,269.155556 C393.087251,268.8 394.242231,268.355556 395.219522,268 C395.75259,267.822222 396.285657,267.555556 397.085259,267.111111 C398.506773,266.488889 400.017131,265.777778 401.172112,265.155556 C401.616335,264.977778 402.060558,264.711111 402.415936,264.444444 C403.748606,263.733333 404.99243,262.933333 406.3251,262.133333 L407.746614,261.155556 C418.763347,253.6 427.29243,243.022222 432.534263,230.666667 C435.999203,222.488889 437.86494,213.866667 438.131474,205.155556 L438.131474,203.288889 C438.131474,195.111111 436.70996,186.933333 433.778088,179.2 C423.738645,151.644444 397.262948,133.066667 367.944223,133.066667 C337.026295,133.066667 310.106375,152.977778 301.044223,182.666667 C299.356175,188.177778 298.378884,193.511111 298.023506,198.933333 L297.934661,200 C297.845817,201.066667 297.756972,202.222222 297.756972,203.288889 L297.756972,204.177778 C298.201195,232.088889 314.992829,257.066667 340.668924,267.911111 L340.668924,267.911111 Z M315.703586,201.155556 L315.79243,200 C316.058964,196.088889 316.769721,192.088889 318.10239,187.911111 C324.854582,165.777778 344.933466,150.844444 368.033068,150.844444 C389.888845,150.844444 409.701195,164.711111 417.164143,185.333333 C419.118725,190.755556 420.273705,196.355556 420.36255,201.955556 L420.36255,203.377778 C420.36255,210.311111 418.941036,217.155556 416.186853,223.733333 C412.366534,232.8 406.236255,240.444444 398.329084,246.133333 L396.818725,247.111111 C395.75259,247.822222 394.686454,248.444444 393.798008,248.888889 L392.909562,249.422222 C391.843426,249.955556 390.688446,250.488889 389.622311,251.022222 L388.200797,251.733333 C387.49004,252 386.779283,252.266667 385.18008,252.8 L383.403187,253.422222 C382.603586,253.688889 381.892829,253.777778 380.471315,254.133333 L378.427888,254.666667 C377.805976,254.755556 377.184064,254.844444 376.562151,254.933333 L373.2749,255.466667 C366.167331,256.177778 358.970916,255.466667 352.30757,253.333333 C351.774502,253.155556 351.330279,252.977778 350.797211,252.8 L349.375697,252.266667 C348.753785,252.088889 348.131873,251.822222 347.50996,251.555556 C328.319522,243.466667 315.79243,224.8 315.525896,203.288889 C315.614741,202.577778 315.614741,201.866667 315.703586,201.155556 Z M288.428287,308.088889 C261.508367,286.044444 227.125498,272.711111 189.721912,272.711111 C103.720319,272.711111 33.7996016,342.666667 33.7996016,428.711111 C33.7996016,430.133333 33.8884462,431.466667 33.9772908,432.8 L34.4215139,443.466667 L345.022311,443.466667 L345.466534,433.066667 C345.555378,431.644444 345.644223,430.133333 345.644223,428.711111 C345.644223,417.955556 344.578088,407.377778 342.445817,397.244444 L477.578486,397.244444 L478.111554,387.555556 C478.200398,386.488889 478.289243,385.333333 478.289243,384.266667 C478.289243,323.466667 428.802789,273.955556 367.944223,273.955556 C337.648207,273.955556 309.217928,286.311111 288.428287,308.088889 Z M189.810757,290.488889 C226.059363,290.488889 259.020717,304.622222 283.719522,327.555556 C285.585259,329.333333 287.450996,331.2 289.227888,332.977778 C289.938645,333.777778 290.649402,334.488889 291.360159,335.288889 C296.779681,341.244444 301.75498,347.555556 306.019522,354.311111 C306.730279,355.377778 307.441036,356.533333 308.151793,357.688889 C309.395618,359.733333 310.550598,361.777778 311.705578,363.822222 C312.238645,364.888889 312.771713,365.955556 313.304781,366.933333 C315.348207,371.022222 317.213944,375.2 318.813147,379.466667 C319.168526,380.444444 319.612749,381.333333 319.879283,382.311111 C320.767729,384.711111 321.478486,387.111111 322.189243,389.6 C325.565339,401.066667 327.69761,413.155556 327.964143,425.688889 L51.6573705,425.688889 C53.2565737,350.933333 114.648207,290.488889 189.810757,290.488889 Z M337.648207,379.555556 C337.648207,379.466667 337.559363,379.377778 337.559363,379.288889 C335.78247,374.133333 333.827888,369.155556 331.606773,364.177778 C331.251394,363.377778 330.807171,362.577778 330.451793,361.688889 C328.408367,357.422222 326.187251,353.333333 323.788446,349.244444 C323.255378,348.266667 322.633466,347.377778 322.100398,346.4 C319.612749,342.4 316.94741,338.488889 314.015538,334.755556 C313.48247,334.044444 312.949402,333.333333 312.416335,332.622222 C308.951394,328.266667 305.308765,324 301.488446,320 C318.901992,301.955556 342.712351,291.733333 368.033068,291.733333 C417.430677,291.733333 457.943825,330.666667 460.431474,379.466667 L337.648207,379.466667 L337.648207,379.555556 Z M151.962948,256.266667 C152.940239,256.711111 154.006375,257.066667 155.07251,257.422222 L158.093227,258.488889 C158.981673,258.844444 159.87012,259.2 160.84741,259.466667 C170.176096,262.4 180.037849,263.911111 189.988446,263.911111 L189.988446,263.911111 C193.364542,263.911111 196.651793,263.733333 199.850199,263.377778 C200.916335,263.288889 201.98247,263.111111 203.048606,262.933333 L205.536255,262.577778 C206.868924,262.4 208.290438,262.222222 209.534263,261.955556 C210.600398,261.777778 211.577689,261.511111 212.643825,261.244444 L214.509562,260.8 C216.01992,260.444444 217.530279,260.088889 219.040637,259.644444 C219.751394,259.377778 220.462151,259.2 221.172908,258.933333 L223.660558,258.044444 C225.082072,257.511111 226.503586,257.066667 227.9251,256.444444 C228.547012,256.177778 229.168924,255.911111 230.323904,255.288889 C232.367331,254.4 234.410757,253.422222 236.454183,252.355556 C236.898406,252.088889 237.342629,251.822222 237.875697,251.555556 C240.185657,250.222222 242.406773,248.888889 244.627888,247.466667 L245.42749,246.933333 C271.903187,228.711111 287.71753,198.666667 287.71753,166.4 C287.71753,112.533333 243.917131,68.6222222 189.988446,68.6222222 C138.54741,68.6222222 95.8131474,108.888889 92.614741,160.177778 L92.5258964,161.244444 C92.4370518,162.933333 92.2593625,164.622222 92.2593625,166.311111 C92.2593625,205.6 115.714343,240.888889 151.962948,256.266667 L151.962948,256.266667 Z M110.205976,162.4 L110.294821,161.155556 C112.871315,119.111111 147.96494,86.2222222 189.988446,86.2222222 C234.055378,86.2222222 269.948606,122.133333 269.948606,166.311111 C269.948606,192.8 256.799602,217.511111 235.388048,232.088889 L234.144223,232.888889 C232.54502,233.955556 230.856972,234.933333 228.991235,236 L228.102789,236.533333 C226.503586,237.422222 224.815538,238.222222 222.949801,238.933333 L220.995219,239.911111 C219.929084,240.355556 218.862948,240.711111 217.796813,241.066667 L213.621116,242.577778 C212.55498,242.933333 211.488845,243.111111 210.422709,243.377778 L207.93506,244 C207.313147,244.177778 206.691235,244.355556 205.891633,244.533333 C204.914343,244.711111 204.025896,244.888889 203.048606,244.977778 L200.116733,245.422222 C199.494821,245.511111 198.872908,245.6 198.073307,245.688889 C195.407968,245.955556 192.742629,246.133333 189.988446,246.133333 C181.814741,246.133333 173.72988,244.888889 166.178088,242.577778 C165.556175,242.4 164.934263,242.133333 164.312351,241.866667 L161.0251,240.622222 C160.225498,240.355556 159.514741,240.088889 158.803984,239.822222 C129.12988,227.288889 109.939442,198.311111 109.939442,166.133333 C110.028287,164.888889 110.117131,163.644444 110.205976,162.4 L110.205976,162.4 Z" id="parents" fill="#FFFFFF"></path>
            <path d="M342.212025,261.448048 C343.082278,261.843815 344.031646,262.160428 345.613924,262.714502 C346.325949,263.031115 347.117089,263.268575 347.908228,263.506035 C353.841772,265.405715 360.170886,266.355556 366.579114,266.355556 C368.71519,266.355556 370.851266,266.276402 373.066456,266.038942 C373.699367,265.959789 374.411392,265.880635 375.044304,265.722329 L376.389241,265.564022 C377.259494,265.405715 378.208861,265.326562 379.237342,265.089102 C379.870253,264.930795 380.503165,264.772489 381.136076,264.614182 L382.006329,264.376722 C383.03481,264.139262 384.063291,263.901802 385.25,263.506035 L387.939873,262.556195 C388.889241,262.239582 389.917722,261.843815 390.787975,261.527202 C391.262658,261.368895 391.737342,261.131435 392.449367,260.735668 C393.71519,260.181595 395.060127,259.548368 396.088608,258.994295 C396.484177,258.835988 396.879747,258.598528 397.196203,258.361068 C398.382911,257.727841 399.490506,257.015461 400.677215,256.303081 L401.943038,255.432394 C411.753165,248.70436 419.348101,239.285112 424.015823,228.282798 C427.101266,221.00069 428.762658,213.322816 429,205.565788 L429,203.903568 C429,196.62146 427.734177,189.339353 425.123418,182.453012 C416.183544,157.915476 392.607595,141.372427 366.5,141.372427 C338.968354,141.372427 314.996835,159.102776 306.927215,185.539992 C305.424051,190.4475 304.553797,195.1967 304.237342,200.025054 L304.158228,200.974894 C304.079114,201.924734 304,202.953728 304,203.903568 L304,204.695101 C304.39557,229.549251 319.348101,251.79134 342.212025,261.448048 L342.212025,261.448048 Z" id="XMLID_11_-path" stroke="#3B958F" stroke-width="19"></path>
            <path d="M154.372674,248.746806 C155.246334,249.144122 156.199418,249.461975 157.152501,249.779828 L159.852904,250.733386 C160.64714,251.051239 161.441377,251.369092 162.315037,251.607481 C170.654517,254.229767 179.470539,255.580641 188.365985,255.580641 L188.365985,255.580641 C191.384082,255.580641 194.322756,255.421715 197.182007,255.103862 C198.13509,255.024399 199.088174,254.865472 200.041257,254.706546 L202.265119,254.388693 C203.456473,254.229767 204.727251,254.07084 205.839182,253.832451 C206.792265,253.673524 207.665925,253.435135 208.619008,253.196745 L210.286904,252.799429 C211.637106,252.481576 212.987308,252.163724 214.337509,251.766408 C214.972898,251.528018 215.608287,251.369092 216.243676,251.130702 L218.467538,250.33607 C219.738316,249.859291 221.009093,249.461975 222.279871,248.905733 C222.835837,248.667343 223.391802,248.428953 224.424309,247.872711 C226.251053,247.078079 228.077796,246.203984 229.904539,245.250426 C230.301657,245.012036 230.698775,244.773646 231.175317,244.535257 C233.240331,243.343309 235.225922,242.151361 237.211512,240.87995 L237.926325,240.403171 C261.594565,224.113216 275.731969,197.254655 275.731969,168.409515 C275.731969,120.254819 236.576123,81 188.365985,81 C142.379707,81 104.176945,116.996828 101.317694,162.847092 L101.238271,163.80065 C101.158847,165.310451 101,166.820251 101,168.330052 C101,203.452785 121.967836,234.999673 154.372674,248.746806 L154.372674,248.746806 Z" id="XMLID_11_-path" stroke="#3B958F" stroke-width="20"></path>
        </g>
    </g>
</svg>