<?xml version="1.0" encoding="utf-8"?>
<!-- Generator: Adobe Illustrator 19.0.0, SVG Export Plug-In . SVG Version: 6.00 Build 0)  -->
<svg version="1.1" id="Layer_1" xmlns="http://www.w3.org/2000/svg" xmlns:xlink="http://www.w3.org/1999/xlink" x="0px" y="0px"
	 viewBox="1 -400 400 400" style="enable-background:new 1 -400 400 400;" xml:space="preserve">
<style type="text/css">
	.st0{fill:#A5DC86;}
</style>
<path class="st0" d="M200-382.7C99.3-382.7,17.3-300.7,17.3-200C17.3-99.3,99.3-17.3,200-17.3c100.7,0,182.7-81.9,182.7-182.7
	C382.7-300.7,300.7-382.7,200-382.7z M200-31.4C107-31.4,31.4-107,31.4-200c0-93,75.6-168.6,168.6-168.6
	c93,0,168.6,75.6,168.6,168.6C368.6-107,293-31.4,200-31.4z"/>
<path class="st0" d="M322-228.7l-24.4,24.4l0,0l-92.9,92.9c-5.2,5.2-12,7.8-18.8,7.8c-6.5,0-13-2.4-18.1-7.1L100-178.5
	c-10.4-10.4-10.4-27.3,0-37.7c5.2-5.2,12-7.8,18.9-7.8c6.8,0,13.7,2.6,18.9,7.8l48.1,48.1l98.4-98.4c1.1-1.1,2.3-2,3.5-2.9
	c0.5-0.4,1.1-0.7,1.6-1c0.6-0.4,1.2-0.6,1.8-0.9c1.7-0.8,3.4-1.5,5.1-2l0,0c2.3-0.6,4.6-1,6.9-1c6.8,0,13.7,2.6,18.9,7.8
	C332.4-256,332.4-239.1,322-228.7z"/>
</svg>
