<?xml version="1.0" encoding="utf-8"?>
<!-- Generator: Adobe Illustrator 19.0.0, SVG Export Plug-In . SVG Version: 6.00 Build 0)  -->
<svg version="1.1" id="Layer_1" xmlns="http://www.w3.org/2000/svg" xmlns:xlink="http://www.w3.org/1999/xlink" x="0px" y="0px"
	 viewBox="1 107.3 400 400" style="enable-background:new 1 107.3 400 400;" xml:space="preserve">
<style type="text/css">
	.st0{fill:#F27474;}
</style>
<path class="st0" d="M201,124.6c-100.7,0-182.7,81.9-182.7,182.7c0,100.7,81.9,182.7,182.7,182.7c100.7,0,182.7-81.9,182.7-182.7
	C383.7,206.6,301.7,124.6,201,124.6z M201,475.9c-93,0-168.6-75.6-168.6-168.6c0-93,75.6-168.6,168.6-168.6
	c93,0,168.6,75.6,168.6,168.6C369.6,400.2,294,475.9,201,475.9z"/>
<path class="st0" d="M263.3,225.5c4.3-4.5,11.6-4.7,16.1-0.4l0.8,0.8l0,0c4.5,4.3,4.7,11.6,0.4,16.1l-55.2,57.7
	c-4.3,4.5-4.2,11.8,0.4,16.1l57.7,55.2c4.5,4.3,4.7,11.6,0.4,16.1L283,388c-4.3,4.5-11.6,4.7-16.1,0.4l-57.7-55.2
	c-4.5-4.3-11.8-4.2-16.1,0.4l-55.2,57.7c-4.3,4.5-11.6,4.7-16.1,0.4l-0.8-0.8c-4.5-4.3-4.7-11.6-0.4-16.1l55.2-57.7
	c4.3-4.5,4.2-11.8-0.4-16.1l-57.7-55.2c-4.5-4.3-4.7-11.6-0.4-16.1l0.8-0.8c4.3-4.5,11.6-4.7,16.1-0.4l57.7,55.2
	c4.5,4.3,11.8,4.2,16.1-0.4L263.3,225.5z"/>
</svg>
