<?xml version="1.0" encoding="UTF-8" standalone="no"?>
<svg width="512px" height="512px" viewBox="0 0 512 512" version="1.1" xmlns="http://www.w3.org/2000/svg" xmlns:xlink="http://www.w3.org/1999/xlink">
    <!-- Generator: Sketch 3.7.1 (28215) - http://www.bohemiancoding.com/sketch -->
    <title>purchase_accept</title>
    <desc>Created with Sketch.</desc>
    <defs></defs>
    <g id="Page-1" stroke="none" stroke-width="1" fill="none" fill-rule="evenodd">
        <g id="purchase_accept">
            <polygon id="Fill-242" fill="#AFDCD9" points="115 447.50475 396.849742 447.50475 396.849742 65 115 65"></polygon>
            <polygon id="Fill-243" fill="#4FB3AD" points="142 110.095763 242.670729 110.095763 242.670729 97 142 97"></polygon>
            <polygon id="Fill-244" fill="#FFFFFF" points="145 127.175026 351.608061 127.175026 351.608061 119 145 119"></polygon>
            <polygon id="Fill-245" fill="#FFFFFF" points="145 145.190747 351.608061 145.190747 351.608061 137 145 137"></polygon>
            <polygon id="Fill-246" fill="#FFFFFF" points="145 162.190747 351.608061 162.190747 351.608061 154 145 154"></polygon>
            <path d="M148.378355,232.811977 L198.804117,232.811977 L198.804117,182.386216 L148.378355,182.386216 L148.378355,232.811977 Z M146.193108,178 L203.190332,178 L203.190332,237.190332 L144,237.190332 L144,178 L146.193108,178 L146.193108,178 Z" id="Fill-247" fill="#FFFFFF"></path>
            <path d="M148.378355,287.804117 L198.804117,287.804117 L198.804117,237.378355 L148.378355,237.378355 L148.378355,287.804117 Z M146.193108,233 L203.190332,233 L203.190332,292.190332 L144,292.190332 L144,233 L146.193108,233 L146.193108,233 Z" id="Fill-248" fill="#FFFFFF"></path>
            <path d="M148.378355,341.811977 L198.804117,341.811977 L198.804117,291.386216 L148.378355,291.386216 L148.378355,341.811977 Z M146.193108,287 L203.190332,287 L203.190332,346.198193 L144,346.198193 L144,287 L146.193108,287 L146.193108,287 Z" id="Fill-249" fill="#FFFFFF"></path>
            <path d="M148.378355,396.811977 L198.804117,396.811977 L198.804117,346.386216 L148.378355,346.386216 L148.378355,396.811977 Z M146.193108,342 L203.190332,342 L203.190332,401.190332 L144,401.190332 L144,342 L146.193108,342 L146.193108,342 Z" id="Fill-250" fill="#FFFFFF"></path>
            <path d="M203.386216,232.811977 L253.811977,232.811977 L253.811977,182.386216 L203.386216,182.386216 L203.386216,232.811977 Z M201.200969,178 L258.198193,178 L258.198193,237.190332 L199,237.190332 L199,178 L201.200969,178 L201.200969,178 Z" id="Fill-251" fill="#FFFFFF"></path>
            <path d="M203.386216,287.804117 L253.811977,287.804117 L253.811977,237.378355 L203.386216,237.378355 L203.386216,287.804117 Z M201.200969,233 L258.198193,233 L258.198193,292.190332 L199,292.190332 L199,233 L201.200969,233 L201.200969,233 Z" id="Fill-252" fill="#FFFFFF"></path>
            <path d="M203.386216,341.811977 L253.811977,341.811977 L253.811977,291.386216 L203.386216,291.386216 L203.386216,341.811977 Z M201.200969,287 L258.198193,287 L258.198193,346.198193 L199,346.198193 L199,287 L201.200969,287 L201.200969,287 Z" id="Fill-253" fill="#FFFFFF"></path>
            <path d="M203.386216,396.811977 L253.811977,396.811977 L253.811977,346.386216 L203.386216,346.386216 L203.386216,396.811977 Z M201.200969,342 L258.198193,342 L258.198193,401.190332 L199,401.190332 L199,342 L201.200969,342 L201.200969,342 Z" id="Fill-254" fill="#FFFFFF"></path>
            <path d="M257.386216,232.811977 L307.811977,232.811977 L307.811977,182.386216 L257.386216,182.386216 L257.386216,232.811977 Z M255.193108,178 L312.190332,178 L312.190332,237.190332 L253,237.190332 L253,178 L255.193108,178 L255.193108,178 Z" id="Fill-255" fill="#FFFFFF"></path>
            <path d="M257.386216,287.804117 L307.811977,287.804117 L307.811977,237.378355 L257.386216,237.378355 L257.386216,287.804117 Z M255.193108,233 L312.190332,233 L312.190332,292.190332 L253,292.190332 L253,233 L255.193108,233 L255.193108,233 Z" id="Fill-256" fill="#FFFFFF"></path>
            <path d="M257.386216,341.811977 L307.811977,341.811977 L307.811977,291.386216 L257.386216,291.386216 L257.386216,341.811977 Z M255.193108,287 L312.190332,287 L312.190332,346.198193 L253,346.198193 L253,287 L255.193108,287 L255.193108,287 Z" id="Fill-257" fill="#FFFFFF"></path>
            <path d="M257.386216,396.811977 L307.811977,396.811977 L307.811977,346.386216 L257.386216,346.386216 L257.386216,396.811977 Z M255.193108,342 L312.190332,342 L312.190332,401.190332 L253,401.190332 L253,342 L255.193108,342 L255.193108,342 Z" id="Fill-258" fill="#FFFFFF"></path>
            <path d="M312.378355,232.811977 L362.804117,232.811977 L362.804117,182.386216 L312.378355,182.386216 L312.378355,232.811977 Z M310.193108,178 L367.190332,178 L367.190332,237.190332 L308,237.190332 L308,178 L310.193108,178 L310.193108,178 Z" id="Fill-259" fill="#FFFFFF"></path>
            <path d="M312.378355,287.804117 L362.804117,287.804117 L362.804117,237.378355 L312.378355,237.378355 L312.378355,287.804117 Z M310.193108,233 L367.190332,233 L367.190332,292.190332 L308,292.190332 L308,233 L310.193108,233 L310.193108,233 Z" id="Fill-260" fill="#FFFFFF"></path>
            <path d="M312.378355,341.811977 L362.804117,341.811977 L362.804117,291.386216 L312.378355,291.386216 L312.378355,341.811977 Z M310.193108,287 L367.190332,287 L367.190332,346.198193 L308,346.198193 L308,287 L310.193108,287 L310.193108,287 Z" id="Fill-261" fill="#FFFFFF"></path>
            <path d="M312.378355,396.811977 L362.804117,396.811977 L362.804117,346.386216 L312.378355,346.386216 L312.378355,396.811977 Z M310.193108,342 L367.190332,342 L367.190332,401.190332 L308,401.190332 L308,342 L310.193108,342 L310.193108,342 Z" id="Fill-262" fill="#FFFFFF"></path>
            <polygon id="Fill-263" fill="#4FB3AD" points="267 428.087902 367.662868 428.087902 367.662868 415 267 415"></polygon>
        </g>
    </g>
</svg>