<?xml version="1.0" encoding="UTF-8" standalone="no"?>
<svg width="512px" height="512px" viewBox="0 0 512 512" version="1.1" xmlns="http://www.w3.org/2000/svg" xmlns:xlink="http://www.w3.org/1999/xlink">
    <!-- Generator: Sketch 3.6.1 (26313) - http://www.bohemiancoding.com/sketch -->
    <title>resources</title>
    <desc>Created with Sketch.</desc>
    <defs></defs>
    <g id="Page-1" stroke="none" stroke-width="1" fill="none" fill-rule="evenodd">
        <g id="resources" fill="#FFFFFF">
            <path d="M245.14245,370.269204 L169,370.269204 L169,335.729464 C169,330.97102 169.886314,326.458703 171.658943,322.274553 C173.431571,318.090404 175.848792,314.398508 178.991179,311.280907 C182.052992,308.163306 185.678822,305.702042 189.788098,303.897114 C193.897373,302.092187 198.24837,301.189724 203.002237,301.189724 L214.363174,301.189724 C215.974655,301.189724 217.424987,300.861555 218.794745,300.28726 C220.164504,299.712965 221.373114,298.892544 222.420576,297.825996 C223.468039,296.759448 224.273779,295.528816 224.837797,294.1341 C225.401815,292.739384 225.724111,291.180583 225.724111,289.621782 C225.724111,287.98094 225.401815,286.504181 224.837797,285.109465 C224.273779,283.714748 223.468039,282.484116 222.420576,281.417569 C221.373114,280.351021 220.164504,279.530599 218.794745,278.956304 C217.424987,278.382009 215.974655,278.053841 214.363174,278.053841 L173.915015,278.053841 L173.915015,255 L214.363174,255 C219.036467,255 223.468039,255.902464 227.49674,257.707391 C231.606015,259.512318 235.231846,261.973582 238.293659,265.173225 C241.355471,268.290826 243.772692,271.982723 245.625895,276.166872 C247.398523,280.351021 248.284837,284.781296 248.284837,289.53974 C248.284837,294.298184 247.398523,298.810502 245.625895,302.994651 C243.853266,307.1788 241.436045,310.870696 238.293659,313.988297 C235.231846,317.105899 231.606015,319.567163 227.49674,321.454132 C223.387465,323.259059 218.955893,324.161523 214.363174,324.161523 L203.002237,324.161523 C201.390757,324.161523 199.940424,324.489691 198.570666,325.063986 C197.200908,325.638281 195.992297,326.458703 194.944835,327.52525 C193.897373,328.591798 193.091632,329.740388 192.527614,331.217147 C191.963596,332.611863 191.6413,334.088621 191.6413,335.729464 L191.6413,347.215364 L245.14245,347.215364 L245.14245,370.269204 L245.14245,370.269204 Z M322.060758,367.725898 C326.331181,366.085055 330.11816,363.705833 333.421695,360.588232 C336.644656,357.470631 339.303599,353.696692 341.237375,349.184375 C343.171152,344.672057 344.13804,339.585445 344.13804,334.006579 C344.13804,328.427714 343.171152,323.423143 341.237375,318.910826 C339.303599,314.48055 336.72523,310.62457 333.421695,307.506969 C330.11816,304.389367 326.411755,301.928103 322.060758,300.28726 C317.790335,298.646418 313.27819,297.825996 308.604896,297.825996 L287.897373,297.825996 L289.992297,278.053841 L339.464747,278.053841 L339.464747,255 L269.60707,255 L263,320.879837 L308.604896,320.879837 C310.135803,320.879837 311.666709,321.125964 313.197616,321.700258 C314.728522,322.274553 316.178854,323.094975 317.387465,324.161523 C318.596075,325.310113 319.643537,326.622787 320.368703,328.26363 C321.09387,329.904472 321.49674,331.791442 321.49674,333.924537 C321.49674,336.303759 321.09387,338.27277 320.368703,339.913613 C319.643537,341.554456 318.596075,342.949172 317.387465,344.01572 C316.178854,345.082268 314.728522,345.902689 313.197616,346.394942 C311.666709,346.887195 310.135803,347.133321 308.604896,347.133321 L263,347.133321 L263,370.187162 L308.604896,370.187162 C313.27819,370.187162 317.790335,369.366741 322.060758,367.725898 L322.060758,367.725898 Z M444.522403,138.82243 L444.522403,197.974812 L444.522403,197.974812 L444.522403,403.982621 C444.522403,428.431179 425.02349,448.367418 401.012432,448.367418 L111.509972,448.367418 C87.4989132,448.367418 68,428.513221 68,404.064663 L68,197.89277 L68,183.125185 L68,138.82243 C68,114.373873 87.4989132,94.5196755 111.509972,94.5196755 L138.260547,94.5196755 L138.260547,88.0383465 C138.260547,74.8295623 148.815744,64 161.868735,64 C174.841153,64 185.476924,74.7475201 185.476924,88.0383465 L185.476924,94.5196755 L327.04548,94.5196755 L327.04548,88.0383465 C327.04548,74.8295623 337.600677,64 350.653668,64 C363.70666,64 374.261856,74.7475201 374.261856,88.0383465 L374.261856,94.5196755 L401.012432,94.5196755 C424.942916,94.4376333 444.522403,114.373873 444.522403,138.82243 L444.522403,138.82243 Z M341,94.7520906 L341,124.28726 C341,129.373873 345.109275,133.558022 350.104864,133.558022 C355.100454,133.558022 359.209729,129.455915 359.209729,124.28726 L359.209729,94.7520906 L359.209729,88.2707616 C359.209729,83.1841491 355.181028,79 350.104864,79 C345.109275,79 341,83.1021069 341,88.2707616 L341,94.7520906 L341,94.7520906 Z M152,94.7520906 L152,94.7520906 L152,124.28726 C152,129.373873 156.109275,133.558022 161.104864,133.558022 C166.100454,133.558022 170.209729,129.455915 170.209729,124.28726 L170.209729,88.2707616 C170.209729,83.1841491 166.181028,79 161.104864,79 C156.109275,79 152,83.1021069 152,88.2707616 L152,94.7520906 L152,94.7520906 Z M82,183.837925 L429.515756,183.837925 L429.515756,139.53517 C429.515756,123.208784 416.462764,110 400.509108,110 L373.758533,110 L373.758533,124.767585 C373.758533,137.976369 363.203336,148.805931 350.150344,148.805931 L350.150344,148.805931 L350.150344,148.805931 C337.097353,148.805931 326.542156,138.058411 326.542156,124.767585 L326.542156,110 L184.9736,110 L184.9736,124.767585 C184.9736,137.976369 174.418403,148.805931 161.365411,148.805931 C148.31242,148.805931 137.757223,138.058411 137.757223,124.767585 L137.757223,110 L111.006648,110 C94.9724175,110 82,123.290826 82,139.53517 L82,183.837925 L82,183.837925 Z M429.435182,198 L82,198 L82,404.007809 C82,420.334195 95.0529915,433.542979 111.006648,433.542979 L400.428534,433.542979 C416.462764,433.542979 429.435182,420.252153 429.435182,404.007809 L429.435182,198 L429.435182,198 Z"></path>
        </g>
    </g>
</svg>