<?xml version="1.0" encoding="utf-8"?>
<!-- Generator: Adobe Illustrator 18.1.1, SVG Export Plug-In . SVG Version: 6.00 Build 0)  -->
<svg version="1.1" id="Capa_1" xmlns="http://www.w3.org/2000/svg" xmlns:xlink="http://www.w3.org/1999/xlink" x="0px" y="0px"
	 viewBox="20 82.5 1240 635" enable-background="new 20 82.5 1240 635" xml:space="preserve">
<g>
	<path fill="#D4D9DD" d="M1170.1,478.1V350.6c-0.4-98.6-67.8-192.4-169-216.3c0,0-3.4-49.5-52.9-49.5c-50.3,0-52.9,48.2-52.9,48.2
		c-101.1,23.9-167.7,119.5-168.1,218v123.7c0,60.6-39.7,70.8-86.6,119.9h615.7C1209.4,544.7,1170.1,538.7,1170.1,478.1z
		 M948.3,717.1c54.2,0,99.4-43.1,111.4-98.6H836.5C848.8,674,894.1,717.1,948.3,717.1z"/>
</g>
<g>
	<path fill="#60676D" d="M551.5,479.1V351.6c-0.4-98.6-67.8-192.4-169-216.3c0,0-3.4-49.5-52.9-49.5c-50.3,0-52.9,48.2-52.9,48.2
		C175.6,157.9,109,253.4,108.6,352v123.7c0,60.6-39.7,70.8-86.6,119.9h616.1C590.3,546.1,551.5,539.7,551.5,479.1z M329.6,718.5
		c54.2,0,99.4-43.1,111.4-98.6H217.8C230.2,675,275.4,718.5,329.6,718.5z"/>
</g>
</svg>
