<?xml version="1.0" encoding="utf-8"?>
<!-- Generator: Adobe Illustrator 19.1.0, SVG Export Plug-In . SVG Version: 6.00 Build 0)  -->
<!DOCTYPE svg PUBLIC "-//W3C//DTD SVG 1.1//EN" "http://www.w3.org/Graphics/SVG/1.1/DTD/svg11.dtd">
<svg version="1.1" id="Capa_1" xmlns="http://www.w3.org/2000/svg" xmlns:xlink="http://www.w3.org/1999/xlink" x="0px" y="0px"
	 viewBox="-183 185 32 32" style="enable-background:new -183 185 32 32;" xml:space="preserve">
<style type="text/css">
	.st0{fill:#CE1111;}
</style>
<g>
	<g>
		<path class="st0" d="M-168.3,200.8c-0.5-1-0.7-2.1-0.7-3.3s0.3-2.5,0.7-3.7c0.5-1.2,1.1-2.3,1.9-3.2c0.8-0.9,1.8-1.7,2.9-2.3
			c1.1-0.6,2.3-0.9,3.5-0.9s2.4,0.3,3.5,0.7c1.1,0.5,2,1.1,2.9,1.9c0.8,0.8,1.5,1.8,1.9,2.9c0.5,1.1,0.7,2.3,0.7,3.5
			s-0.3,2.4-0.7,3.5c-0.5,1.1-1.1,2-1.9,2.9c-0.8,0.8-12.3,11.2-13.4,11.6l0,0l0,0c-1.1-0.5-12.6-10.8-13.4-11.6s-1.5-1.8-1.9-2.9
			c-0.5-1.1-0.7-2.3-0.7-3.5s0.3-2.4,0.7-3.5c0.5-1.1,1.1-2,1.9-2.9c0.8-0.8,1.8-1.5,2.9-1.9c1.1-0.5,2.3-0.7,3.5-0.7
			s2.4,0.3,3.5,0.9c1.1,0.5,2,1.3,2.9,2.3c0.8,0.9,1.5,2,1.9,3.2c0.5,1.2,0.7,2.4,0.7,3.7s-0.3,2.4-0.7,3.3c-0.5,1-1.1,1.8-1.9,2.5"
			/>
	</g>
</g>
</svg>
