<?xml version="1.0" encoding="utf-8"?>
<!-- Generator: Adobe Illustrator 19.0.0, SVG Export Plug-In . SVG Version: 6.00 Build 0)  -->
<svg version="1.1" id="Capa_1" xmlns="http://www.w3.org/2000/svg" xmlns:xlink="http://www.w3.org/1999/xlink" x="0px" y="0px"
	 viewBox="1 107.3 400 400" style="enable-background:new 1 107.3 400 400;" xml:space="preserve">
<style type="text/css">
	.st0{fill:#D2D2D2;}
</style>
<path class="st0" d="M199.8,193.7c78.9,0,153.4,84.9,176.4,113.6c-22.9,28.7-97.5,113.6-176.4,113.6c-78.9,0-153.4-84.9-176.4-113.6
	C46.4,278.6,120.9,193.7,199.8,193.7 M199.8,177.9C99.1,177.9,7.9,301.3,3.6,307.2v0.2c4.3,5.9,95.5,129.3,196.2,129.3
	c100.7,0,191.9-123.4,196.2-129.3v-0.2C391.7,301.3,300.5,177.9,199.8,177.9L199.8,177.9z M199.8,225.2c45.3,0,82.1,36.8,82.1,82
	s-36.8,82-82.1,82c-45.2,0-82-36.8-82-82S154.5,225.2,199.8,225.2 M199.8,209.4c-54,0-97.9,43.8-97.9,97.9c0,54,43.8,97.9,97.9,97.9
	c54,0,97.9-43.8,97.9-97.9C297.6,253.2,253.8,209.4,199.8,209.4L199.8,209.4z M199.8,266.3c-22.6,0-40.9,18.3-40.9,40.9
	s18.3,40.9,40.9,40.9c22.6,0,40.9-18.3,40.9-40.9S222.4,266.3,199.8,266.3z"/>
</svg>
