<?xml version="1.0" encoding="UTF-8"?>
<svg width="500px" height="500px" viewBox="0 0 500 500" version="1.1" xmlns="http://www.w3.org/2000/svg" xmlns:xlink="http://www.w3.org/1999/xlink">
    <!-- Generator: Sketch 41.2 (35397) - http://www.bohemiancoding.com/sketch -->
    <title>financials_active</title>
    <desc>Created with Sketch.</desc>
    <defs></defs>
    <g id="Page-1" stroke="none" stroke-width="1" fill="none" fill-rule="evenodd">
        <g id="financials_active">
            <g id="financials" transform="translate(72.000000, 34.000000)">
                <path d="M199.365845,124.001201 C201.308285,124.001201 202.785348,123.198047 203.797036,121.558276 C204.81277,119.918505 205.314567,117.291525 205.314567,113.685701 L205.314567,102.044162 C205.314567,98.4927186 204.796583,95.9033859 203.764662,94.2552485 C202.736787,92.602928 201.25163,91.7830424 199.30919,91.7830424 C197.34247,91.7830424 195.849219,92.602928 194.845625,94.2426992 C193.829891,95.8782874 193.32,98.4843524 193.32,102.044162 L193.32,113.685701 C193.32,117.291525 193.837984,119.918505 194.857765,121.558276 C195.877546,123.198047 197.37889,124.001201 199.365845,124.001201" id="Fill-130" fill="#45AFA8"></path>
                <path d="M81.3148923,116.777401 L89.7968806,116.777401 C89.7968806,119.53824 90.4079398,121.500109 91.6219648,122.683924 C92.8440834,123.880287 94.3980354,124.46592 96.2757275,124.46592 C98.0927183,124.46592 99.4645665,123.972315 100.43174,122.985106 C101.394866,121.981165 101.87643,120.655125 101.87643,118.96934 C101.87643,117.312836 101.411053,115.961698 100.492441,114.90756 C99.569782,113.86597 97.9875028,112.89131 95.7456032,111.996129 C91.3467858,110.327076 88.072965,108.482334 85.9484212,106.440986 C83.8036437,104.395455 82.7514886,101.521672 82.7514886,97.8154544 C82.7514886,94.3685883 83.8036437,91.5450027 85.9484212,89.3488805 C88.072965,87.1318428 90.9421108,85.8476343 94.5558587,85.4586069 L94.5558587,78.8367756 L99.2865095,78.8367756 L99.2865095,85.508804 C102.778855,86.0442395 105.514458,87.5501518 107.517599,90.0390903 C109.504554,92.5196626 110.483867,95.7322756 110.439353,99.6852956 L110.354371,99.8400699 L101.87643,99.8400699 C101.87643,97.422244 101.394866,95.5649521 100.43174,94.2514618 C99.4645665,92.9379716 98.1534195,92.2728603 96.4902052,92.2728603 C94.7784299,92.2728603 93.5158439,92.7790142 92.6781666,93.795505 C91.8485829,94.8078128 91.4317676,96.1631339 91.4317676,97.8405529 C91.4317676,99.4426764 91.8728634,100.739434 92.7510081,101.730827 C93.6331996,102.730585 95.2559464,103.705245 97.6232952,104.671539 C102.001879,106.449352 105.251419,108.365207 107.363823,110.394006 C109.476226,112.422804 110.536475,115.258939 110.536475,118.91496 C110.536475,122.478952 109.464086,125.327637 107.351682,127.461012 C105.223092,129.594388 102.341806,130.853498 98.6916373,131.246709 L98.6916373,137.333105 L93.9609864,137.333105 L93.9609864,131.271807 C90.2501166,130.878597 87.1907735,129.527459 84.7708169,127.197478 C82.3468136,124.87168 81.1773028,121.449912 81.2582378,116.936358 L81.3148923,116.777401 Z M118.443824,87.5794335 L135.933878,85.97731 L135.933878,130.748921 L127.249553,130.748921 L127.249553,93.9084485 L118.443824,93.9084485 L118.443824,87.5794335 Z M151.137519,103.445893 C151.137519,97.5435536 152.452712,93.0383658 155.0831,89.9554285 C157.705394,86.8766744 161.274628,85.3289311 165.77866,85.3289311 C170.26246,85.3289311 173.819553,86.8766744 176.470174,89.9554285 C179.120795,93.0383658 180.440036,97.5435536 180.440036,103.445893 L180.440036,113.305436 C180.440036,119.237058 179.132936,123.725513 176.502548,126.795901 C173.872161,129.866289 170.315067,131.384751 165.835315,131.384751 C161.315095,131.384751 157.733721,129.866289 155.099287,126.795901 C152.452712,123.725513 151.137519,119.237058 151.137519,113.305436 L151.137519,103.445893 Z M186.093346,103.445893 C186.093346,97.5435536 187.412586,93.0383658 190.03488,89.9554285 C192.661221,86.8766744 196.234502,85.3289311 200.734488,85.3289311 C205.210193,85.3289311 208.779427,86.8766744 211.421955,89.9554285 C214.08067,93.0383658 215.39991,97.5435536 215.39991,103.445893 L215.39991,113.305436 C215.39991,119.237058 214.084716,123.725513 211.458376,126.795901 C208.832035,129.866289 205.266848,131.384751 200.791142,131.384751 C196.270922,131.384751 192.685502,129.866289 190.055114,126.795901 C187.412586,123.725513 186.093346,119.237058 186.093346,113.305436 L186.093346,103.445893 Z M46.44,155.701052 L250.218148,155.701052 L250.218148,60.4688279 L46.44,60.4688279 L46.44,155.701052 Z" id="Fill-131" fill="#45AFA8"></path>
                <path d="M165.877751,124.001201 C167.820191,124.001201 169.297255,123.198047 170.317036,121.558276 C171.324677,119.918505 171.826474,117.291525 171.826474,113.685701 L171.826474,102.044162 C171.826474,98.4927186 171.30849,95.9033859 170.276569,94.2552485 C169.244647,92.602928 167.75949,91.7830424 165.821097,91.7830424 C163.858423,91.7830424 162.369219,92.602928 161.357531,94.2426992 C160.349891,95.8782874 159.84,98.4843524 159.84,102.044162 L159.84,113.685701 C159.84,117.291525 160.349891,119.918505 161.369672,121.558276 C162.389453,123.198047 163.89889,124.001201 165.877751,124.001201" id="Fill-132" fill="#45AFA8"></path>
                <polygon id="Fill-133" fill="#FFFFFF" points="46.44 224.19869 81.5738844 224.19869 81.5738844 187.885287 46.44 187.885287"></polygon>
                <polygon id="Fill-134" fill="#FFFFFF" points="88.56 224.19869 123.697931 224.19869 123.697931 187.885287 88.56 187.885287"></polygon>
                <polygon id="Fill-135" fill="#FFFFFF" points="131.76 224.19869 166.893884 224.19869 166.893884 187.885287 131.76 187.885287"></polygon>
                <polygon id="Fill-136" fill="#FFFFFF" points="173.88 224.19869 248.841999 224.19869 248.841999 187.885287 173.88 187.885287"></polygon>
                <polygon id="Fill-137" fill="#FFFFFF" points="46.44 269.554494 81.5738844 269.554494 81.5738844 233.236908 46.44 233.236908"></polygon>
                <polygon id="Fill-138" fill="#FFFFFF" points="88.56 269.554494 123.697931 269.554494 123.697931 233.236908 88.56 233.236908"></polygon>
                <polygon id="Fill-139" fill="#FFFFFF" points="131.76 269.554494 166.893884 269.554494 166.893884 233.236908 131.76 233.236908"></polygon>
                <polygon id="Fill-140" fill="#FFFFFF" points="173.88 269.554494 248.841999 269.554494 248.841999 233.236908 173.88 233.236908"></polygon>
                <polygon id="Fill-141" fill="#FFFFFF" points="46.44 314.910298 81.5738844 314.910298 81.5738844 278.588529 46.44 278.588529"></polygon>
                <polygon id="Fill-142" fill="#FFFFFF" points="88.56 314.910298 123.697931 314.910298 123.697931 278.588529 88.56 278.588529"></polygon>
                <polygon id="Fill-143" fill="#FFFFFF" points="131.76 314.910298 166.893884 314.910298 166.893884 278.588529 131.76 278.588529"></polygon>
                <polygon id="Fill-144" fill="#FFFFFF" points="173.88 314.910298 248.841999 314.910298 248.841999 278.588529 173.88 278.588529"></polygon>
                <polygon id="Fill-145" fill="#FFFFFF" points="46.44 360.257736 81.5738844 360.257736 81.5738844 323.94015 46.44 323.94015"></polygon>
                <polygon id="Fill-146" fill="#FFFFFF" points="88.56 360.257736 123.697931 360.257736 123.697931 323.94015 88.56 323.94015"></polygon>
                <polygon id="Fill-147" fill="#FFFFFF" points="131.76 360.257736 166.893884 360.257736 166.893884 323.94015 131.76 323.94015"></polygon>
                <polygon id="Fill-148" fill="#FFFFFF" points="173.88 360.257736 248.841999 360.257736 248.841999 323.94015 173.88 323.94015"></polygon>
                <path d="M391.943934,266.136545 C391.943934,269.809297 389.054554,272.796024 385.505555,272.796024 L337.555613,272.796024 L337.555613,93.0612006 L385.505555,93.0612006 C389.054554,93.0612006 391.943934,96.0479268 391.943934,99.7248628 L391.943934,266.136545 Z M290.843976,272.796024 L306.444198,272.796024 L306.444198,93.0612006 L290.843976,93.0612006 L290.843976,272.796024 Z M277.955077,373.056322 C277.955077,398.761409 257.721327,419.681042 232.858094,419.681042 L57.9858822,419.681042 C33.1226496,419.681042 12.8888991,398.761409 12.8888991,373.056322 L12.8888991,59.943678 C12.8888991,34.2427738 33.1226496,13.3231413 57.9858822,13.3231413 L232.858094,13.3231413 C257.721327,13.3231413 277.955077,34.2427738 277.955077,59.943678 L277.955077,373.056322 Z M385.505555,79.7422424 L290.843976,79.7422424 L290.843976,59.943678 C290.843976,26.8889018 264.82742,0 232.858094,0 L57.9858822,0 C26.0165564,0 0,26.8889018 0,59.943678 L0,373.056322 C0,406.111098 26.0165564,433 57.9858822,433 L232.858094,433 C264.82742,433 290.843976,406.111098 290.843976,373.056322 L290.843976,286.119165 L385.505555,286.119165 C396.160648,286.119165 404.832833,277.154803 404.832833,266.136545 L404.832833,99.7248628 C404.832833,88.702421 396.160648,79.7422424 385.505555,79.7422424 L385.505555,79.7422424 Z" id="Fill-149" fill="#FFFFFF"></path>
                <path d="M377.759712,103.660848 L360.682426,103.660848 C357.121286,103.660848 354.24,106.639208 354.24,110.320327 L354.24,137.506228 C354.24,141.187347 357.121286,144.165707 360.682426,144.165707 L377.759712,144.165707 C381.320852,144.165707 384.202138,141.187347 384.202138,137.506228 L384.202138,110.320327 C384.202138,106.639208 381.320852,103.660848 377.759712,103.660848" id="Fill-150" fill="#FFFFFF"></path>
            </g>
        </g>
    </g>
</svg>