<?xml version="1.0" encoding="utf-8"?>
<!-- Generator: Adobe Illustrator 19.0.0, SVG Export Plug-In . SVG Version: 6.00 Build 0)  -->
<svg version="1.1" id="Layer_1" xmlns="http://www.w3.org/2000/svg" xmlns:xlink="http://www.w3.org/1999/xlink" x="0px" y="0px"
	 viewBox="1 -400 400 400" style="enable-background:new 1 -400 400 400;" xml:space="preserve">
<style type="text/css">
	.st0{fill:#D2D2D2;}
</style>
<path class="st0" d="M236-123.7H30.8c-9.1,0-16.4-7.4-16.4-16.4v-17.2c0-9.1,7.4-16.4,16.4-16.4H236c9.1,0,16.4,7.4,16.4,16.4v17.2
	C252.4-131.1,245.1-123.7,236-123.7z M30.8-158.8c-0.8,0-1.5,0.7-1.5,1.5v17.2c0,0.8,0.7,1.5,1.5,1.5H236c0.8,0,1.5-0.7,1.5-1.5
	v-17.2c0-0.8-0.7-1.5-1.5-1.5H30.8z M236-180.1H30.8c-9.1,0-16.4-7.4-16.4-16.4v-17.2c0-9.1,7.4-16.4,16.4-16.4H236
	c9.1,0,16.4,7.4,16.4,16.4v17.2C252.4-187.4,245.1-180.1,236-180.1z M30.8-215.1c-0.8,0-1.5,0.7-1.5,1.5v17.2c0,0.8,0.7,1.5,1.5,1.5
	H236c0.8,0,1.5-0.7,1.5-1.5v-17.2c0-0.8-0.7-1.5-1.5-1.5H30.8z M236-236.4H30.8c-9.1,0-16.4-7.4-16.4-16.4V-270
	c0-9.1,7.4-16.4,16.4-16.4H236c9.1,0,16.4,7.4,16.4,16.4v17.2C252.4-243.8,245.1-236.4,236-236.4z M30.8-271.5
	c-0.8,0-1.5,0.7-1.5,1.5v17.2c0,0.8,0.7,1.5,1.5,1.5H236c0.8,0,1.5-0.7,1.5-1.5V-270c0-0.8-0.7-1.5-1.5-1.5H30.8z M276.1,101.7
	c-65.5,0-118.9-53.3-118.9-118.9c0-65.5,53.3-118.9,118.9-118.9S395-82.8,395-17.2C395,48.3,341.7,101.7,276.1,101.7z M276.1-121.1
	c-57.3,0-103.9,46.6-103.9,103.9S218.8,86.7,276.1,86.7S380,40.1,380-17.2S333.4-121.1,276.1-121.1z M236,101.7H30.8
	c-9.1,0-16.4-7.4-16.4-16.4V68.1c0-9.1,7.4-16.4,16.4-16.4h167.6l2.2,2.4c12.5,13.3,28.2,23,45.4,28.2l8.7,2.6l-4.3,8
	C247.5,98.3,242,101.7,236,101.7z M30.8,66.6c-0.8,0-1.5,0.7-1.5,1.5v17.2c0,0.8,0.7,1.5,1.5,1.5h187.7
	c-9.7-5.4-18.6-12.2-26.5-20.1H30.8V66.6z M192.2,45.3H30.8c-9.1,0-16.4-7.4-16.4-16.4V11.7c0-9.1,7.4-16.4,16.4-16.4h142l1.1,6.1
	C176,13,180,24,185.8,34.1L192.2,45.3z M30.8,10.3c-0.8,0-1.5,0.7-1.5,1.5V29c0,0.8,0.7,1.5,1.5,1.5h136.4
	c-2.8-6.5-5.1-13.2-6.7-20.1H30.8V10.3z M172.2-11H30.8c-9.1,0-16.4-7.4-16.4-16.4v-17.2c0-9.1,7.4-16.4,16.4-16.4h150.6l-3.4,9.9
	c-3.7,10.6-5.6,21.6-5.7,32.7L172.2-11z M30.8-46.1c-0.8,0-1.5,0.7-1.5,1.5v17.2c0,0.8,0.7,1.5,1.5,1.5h126.8
	c0.5-6.8,1.6-13.5,3.3-20.1H30.8V-46.1z M185.1-67.4H30.8c-9.1,0-16.4-7.4-16.4-16.4V-101c0-9.1,7.4-16.4,16.4-16.4H239l-20.5,13.7
	C206-95.4,195.2-84,187.3-71L185.1-67.4z M30.8-102.4c-0.8,0-1.5,0.7-1.5,1.5v17.2c0,0.8,0.7,1.5,1.5,1.5h146
	c4.8-7.3,10.4-14.1,16.6-20.1H30.8V-102.4z M284.5-56.3H305v19.2h-38.8c-1.3,0-2.5,0.5-3.4,1.4s-1.4,2-1.4,3.3
	c0,1.3,0.5,2.5,1.4,3.4s2.1,1.4,3.4,1.4h20c3.3,0,6.4,0.6,9.2,1.7c2.9,1.1,5.4,2.7,7.6,4.6c2.2,2,3.9,4.4,5.1,7.1
	c1.3,2.7,1.9,5.8,1.9,9c0,3.3-0.6,6.5-1.9,9.4s-3,5.4-5.1,7.6c-2.2,2.1-4.7,3.8-7.6,5.1s-6,1.9-9.2,1.9h-1.7v26.9h-16.1V18.8h-26
	v-19h43.8c1.2,0,2.3-0.5,3.2-1.4s1.4-2.1,1.4-3.5c0-1.3-0.5-2.2-1.4-2.6c-0.9-0.4-2-0.6-3.2-0.6h-20c-3.3,0-6.4-0.6-9.3-1.9
	c-2.9-1.3-5.4-3-7.5-5.2s-3.8-4.7-5.1-7.7c-1.3-2.9-1.9-6-1.9-9.4c0-3.3,0.6-6.4,1.9-9.2c1.3-2.9,3-5.4,5.1-7.6s4.6-3.9,7.5-5.1
	c2.9-1.3,6-1.9,9.3-1.9h2.2v-23.8h16.1V-56.3z"/>
</svg>
