<?xml version="1.0" encoding="UTF-8" standalone="no"?>
<svg width="512px" height="512px" viewBox="0 0 512 512" version="1.1" xmlns="http://www.w3.org/2000/svg" xmlns:xlink="http://www.w3.org/1999/xlink">
    <!-- Generator: Sketch 3.7 (28169) - http://www.bohemiancoding.com/sketch -->
    <title>payment_discount_active</title>
    <desc>Created with Sketch.</desc>
    <defs></defs>
    <g id="Page-1" stroke="none" stroke-width="1" fill="none" fill-rule="evenodd">
        <g id="payment_discount_active">
            <path d="M440.481629,152.899804 C440.481629,132.339761 423.796932,115.674206 403.215343,115.674206 L75.266286,115.674206 C54.684697,115.674206 38,132.340686 38,152.899804 L38,185.49752 L440.481629,185.49752 L440.481629,152.899804 L440.481629,152.899804 L440.481629,152.899804 Z" id="Shape" fill="#45AFA8"></path>
            <path d="M382.436549,212.572111 C365.565756,212.572111 349.743023,217.114908 336.117326,225.034284 L38,225.034284 L38,337.966082 C38,358.524275 54.684697,375.19168 75.266286,375.19168 L322.677725,375.19168 C338.800432,388.883886 359.669034,397.156549 382.4384,397.156549 C433.383157,397.156549 474.831496,355.755314 474.831496,304.86433 C474.829644,253.974271 433.383157,212.572111 382.436549,212.572111 L382.436549,212.572111 Z M175.388356,324.298846 C175.388356,326.93648 173.246871,329.074703 170.60728,329.074703 L96.8876017,329.074703 C94.2470847,329.074703 92.1055996,326.93648 92.1055996,324.298846 L92.1055996,309.769663 C92.1055996,307.131105 94.2470847,304.992882 96.8876017,304.992882 L170.60728,304.992882 C173.247797,304.992882 175.388356,307.131105 175.388356,309.769663 L175.388356,324.298846 L175.388356,324.298846 L175.388356,324.298846 Z M382.436549,363.362095 C350.092068,363.362095 323.875771,337.172572 323.875771,304.865255 C323.875771,272.557938 350.092068,246.36934 382.436549,246.36934 C414.779178,246.36934 440.9964,272.558863 440.9964,304.865255 C440.9964,337.171647 414.779178,363.362095 382.436549,363.362095 L382.436549,363.362095 Z" id="Shape" fill="#45AFA8"></path>
            <ellipse id="Oval-1-Copy" stroke="#B0B0B0" stroke-width="9" fill="#B0B0B0" cx="362.5" cy="279.5" rx="14.5" ry="14.5"></ellipse>
            <ellipse id="Oval-1-Copy-2" stroke="#B0B0B0" stroke-width="9" fill="#B0B0B0" cx="401.5" cy="330.5" rx="14.5" ry="14.5"></ellipse>
            <path d="M352.5,334.5 L410.5,273.5" id="Line" stroke="#B0B0B0" stroke-width="15" stroke-linecap="round" stroke-linejoin="round"></path>
        </g>
    </g>
</svg>