<?xml version="1.0" encoding="UTF-8" standalone="no"?>
<svg width="512px" height="512px" viewBox="0 0 512 512" version="1.1" xmlns="http://www.w3.org/2000/svg" xmlns:xlink="http://www.w3.org/1999/xlink">
    <!-- Generator: Sketch 3.7 (28169) - http://www.bohemiancoding.com/sketch -->
    <title>payment_agreement</title>
    <desc>Created with Sketch.</desc>
    <defs></defs>
    <g id="Page-1" stroke="none" stroke-width="1" fill="none" fill-rule="evenodd">
        <g id="payment_agreement" fill="#B0B0B0">
            <path d="M440.481629,152.899804 C440.481629,132.339761 423.796932,115.674206 403.215343,115.674206 L75.266286,115.674206 C54.684697,115.674206 38,132.340686 38,152.899804 L38,185.49752 L440.481629,185.49752 L440.481629,152.899804 L440.481629,152.899804 L440.481629,152.899804 Z" id="Shape"></path>
            <path d="M382.436549,212.572111 C365.565756,212.572111 349.743023,217.114908 336.117326,225.034284 L38,225.034284 L38,337.966082 C38,358.524275 54.684697,375.19168 75.266286,375.19168 L322.677725,375.19168 C338.800432,388.883886 359.669034,397.156549 382.4384,397.156549 C433.383157,397.156549 474.831496,355.755314 474.831496,304.86433 C474.829644,253.974271 433.383157,212.572111 382.436549,212.572111 L382.436549,212.572111 Z M175.388356,324.298846 C175.388356,326.93648 173.246871,329.074703 170.60728,329.074703 L96.8876017,329.074703 C94.2470847,329.074703 92.1055996,326.93648 92.1055996,324.298846 L92.1055996,309.769663 C92.1055996,307.131105 94.2470847,304.992882 96.8876017,304.992882 L170.60728,304.992882 C173.247797,304.992882 175.388356,307.131105 175.388356,309.769663 L175.388356,324.298846 L175.388356,324.298846 L175.388356,324.298846 Z M382.436549,363.362095 C350.092068,363.362095 323.875771,337.172572 323.875771,304.865255 C323.875771,272.557938 350.092068,246.36934 382.436549,246.36934 C414.779178,246.36934 440.9964,272.558863 440.9964,304.865255 C440.9964,337.171647 414.779178,363.362095 382.436549,363.362095 L382.436549,363.362095 Z" id="Shape"></path>
            <path d="M390.475,296.125 L390.431,296.109 C380.326,292.304 377.082,290.105 377.082,287.054 C377.082,283.575 380.356,281.581 386.067,281.581 C389.923,281.581 393.557,282.161 397.173,283.352 C398.879,283.915 400.748,283.746 402.326,282.88 C403.905,282.017 405.055,280.538 405.502,278.794 L406.183,276.138 C407.044,272.784 405.122,269.343 401.815,268.318 C398.393,267.256 394.66,266.613 390.428,266.357 L390.428,262.498 C390.428,258.909 387.519,256 383.929,256 L383.285,256 C379.696,256 376.787,258.909 376.787,262.498 L376.787,267.324 C364.556,270.032 357,278.291 357,289.045 C357,299.498 363.729,306.422 378.806,311.496 C385.818,313.864 390.488,316.328 390.488,320.657 C390.488,324.524 386.69,326.834 380.331,326.834 C375.889,326.834 371.342,325.975 366.816,324.279 C365.087,323.633 363.167,323.75 361.53,324.603 C359.894,325.457 358.699,326.964 358.241,328.753 L357.456,331.816 C356.628,335.049 358.385,338.385 361.519,339.531 C365.925,341.143 371.102,342.195 376.204,342.521 L376.204,347.204 C376.204,350.792 379.114,353.702 382.704,353.702 L383.346,353.702 C386.936,353.702 389.845,350.792 389.845,347.204 L389.845,341.576 C402.538,339.04 410.686,330.264 410.686,319.017 C410.685,307.971 404.622,301.117 390.475,296.125 L390.475,296.125 Z" id="Shape"></path>
        </g>
    </g>
</svg>