<?xml version="1.0" encoding="UTF-8" standalone="no"?>
<svg width="512px" height="512px" viewBox="0 0 512 512" version="1.1" xmlns="http://www.w3.org/2000/svg" xmlns:xlink="http://www.w3.org/1999/xlink">
    <!-- Generator: Sketch 3.7 (28169) - http://www.bohemiancoding.com/sketch -->
    <title>payment_respond</title>
    <desc>Created with Sketch.</desc>
    <defs></defs>
    <g id="Page-1" stroke="none" stroke-width="1" fill="none" fill-rule="evenodd">
        <g id="payment_respond">
            <path d="M360.02788,381.177977 C358.490225,375.219103 359.683015,319.968959 359.683015,315.633711 C359.683015,311.298463 356.436855,278.551438 336.472654,256.33622 C316.502124,234.127698 286.125532,216 286.125532,216 L224.394703,216 C224.394703,216 194.185797,234.127698 174.218432,256.33622 C154.25423,278.551438 151.182084,310.903437 151.182084,315.238685 C151.182084,319.570585 152.716575,375.02159 151.182084,380.980464 C149.647593,386.939338 111.250518,404.913042 144.528405,420.078042 C177.803129,435.246389 256.647487,432.049352 256.647487,432.049352 C256.647487,432.049352 334.106057,435.320038 367.377617,420.155038 C400.655505,404.990039 361.559207,387.136851 360.02788,381.177977" id="Fill-104" stroke="#45AFA8" stroke-width="6" fill="#AFDCD9"></path>
            <path d="M224.136544,205.385977 L183.353888,158.789591 C183.353888,158.789591 173.371787,144.227175 180.667738,140.571506 C187.960525,136.915837 202.552426,152.589684 209.079549,145.683416 C215.606672,138.773801 215.223841,120 235.960033,120 C256.696226,120 260.920031,146.366343 273.208614,140.270214 C285.490869,134.177433 295.093302,121.56002 306.613058,138.626503 C318.132813,155.689638 336.562524,131.174562 332.72155,151.488297 C328.883741,171.802031 285.867373,205.385977 285.867373,205.385977 L224.136544,205.385977" id="Fill-106" stroke="#45AFA8" stroke-width="5" fill="#AFDCD9"></path>
            <text id="$" font-family="LucidaGrande, Lucida Grande" font-size="131" font-weight="normal" fill="#FFFFFF">
                <tspan x="215" y="380.719008">$</tspan>
            </text>
            <g id="Money-Copy" transform="translate(308.000000, 68.000000)">
                <path d="M50.7471645,26.1230224 C50.7471645,40.0457648 39.5544701,51.3283073 25.7458486,51.3283073 C11.9372271,51.3283073 0.747164463,40.0457648 0.747164463,26.1230224 C0.747164463,12.2002801 11.9372271,0.91508413 25.7458486,0.91508413 C39.5544701,0.91508413 50.7471645,12.2002801 50.7471645,26.1230224" id="Fill-100" stroke="#45AFA8" stroke-width="4" fill="#AFDCD9"></path>
                <text id="$" font-family="LucidaGrande-Bold, Lucida Grande" font-size="33" font-weight="bold" fill="#FFFFFF">
                    <tspan x="16" y="35.0247934">$</tspan>
                </text>
            </g>
            <g id="Money-Copy-3" transform="translate(231.000000, 16.000000)">
                <path d="M50.7471645,26.1230224 C50.7471645,40.0457648 39.5544701,51.3283073 25.7458486,51.3283073 C11.9372271,51.3283073 0.747164463,40.0457648 0.747164463,26.1230224 C0.747164463,12.2002801 11.9372271,0.91508413 25.7458486,0.91508413 C39.5544701,0.91508413 50.7471645,12.2002801 50.7471645,26.1230224" id="Fill-100" stroke="#45AFA8" stroke-width="4" fill="#AFDCD9"></path>
                <text id="$" font-family="LucidaGrande-Bold, Lucida Grande" font-size="33" font-weight="bold" fill="#FFFFFF">
                    <tspan x="16" y="35.0247934">$</tspan>
                </text>
            </g>
            <g id="Money-Copy-2" transform="translate(153.000000, 42.000000)">
                <path d="M50.7471645,26.1230224 C50.7471645,40.0457648 39.5544701,51.3283073 25.7458486,51.3283073 C11.9372271,51.3283073 0.747164463,40.0457648 0.747164463,26.1230224 C0.747164463,12.2002801 11.9372271,0.91508413 25.7458486,0.91508413 C39.5544701,0.91508413 50.7471645,12.2002801 50.7471645,26.1230224" id="Fill-100" stroke="#45AFA8" stroke-width="4" fill="#AFDCD9"></path>
                <text id="$" font-family="LucidaGrande-Bold, Lucida Grande" font-size="33" font-weight="bold" fill="#FFFFFF">
                    <tspan x="16" y="35.0247934">$</tspan>
                </text>
            </g>
        </g>
    </g>
</svg>